<svg width="26" height="26" viewBox="0 0 26 26" fill="none" xmlns="http://www.w3.org/2000/svg">
<g opacity="0.6">
<path d="M6.32794 23.201C5.74791 23.201 5.25155 22.9947 4.83885 22.582C4.42615 22.1693 4.21945 21.6726 4.21875 21.0919V10.5459C4.21875 9.96589 4.42545 9.46953 4.83885 9.05683C5.25225 8.64413 5.74861 8.43743 6.32794 8.43673H7.38253V6.32754C7.38253 4.86868 7.89682 3.62532 8.92541 2.59744C9.95399 1.56956 11.1974 1.05527 12.6555 1.05457C14.1137 1.05386 15.3574 1.56815 16.3867 2.59744C17.4159 3.62672 17.9299 4.87009 17.9285 6.32754V8.43673H18.9831C19.5631 8.43673 20.0598 8.64343 20.4732 9.05683C20.8866 9.47023 21.093 9.96659 21.0923 10.5459V21.0919C21.0923 21.6719 20.8859 22.1686 20.4732 22.582C20.0605 22.9954 19.5638 23.2018 18.9831 23.201H6.32794ZM12.6555 17.9281C13.2355 17.9281 13.7322 17.7217 14.1456 17.309C14.559 16.8963 14.7654 16.3996 14.7647 15.8189C14.764 15.2382 14.5576 14.7418 14.1456 14.3298C13.7337 13.9178 13.2369 13.7111 12.6555 13.7097C12.0741 13.7083 11.5777 13.915 11.1664 14.3298C10.7551 14.7446 10.5484 15.241 10.5463 15.8189C10.5442 16.3968 10.7509 16.8935 11.1664 17.309C11.5819 17.7245 12.0783 17.9309 12.6555 17.9281ZM9.49172 8.43673H15.8193V6.32754C15.8193 5.44871 15.5117 4.70171 14.8965 4.08652C14.2813 3.47134 13.5343 3.16375 12.6555 3.16375C11.7767 3.16375 11.0297 3.47134 10.4145 4.08652C9.79931 4.70171 9.49172 5.44871 9.49172 6.32754V8.43673Z" fill="black"/>
</g>
</svg>
