<svg width="30" height="30" viewBox="0 0 30 30" fill="none" xmlns="http://www.w3.org/2000/svg">
<g clip-path="url(#clip0_1794_274)">
<path fill-rule="evenodd" clip-rule="evenodd" d="M15.8844 19.6337C15.65 19.868 15.3321 19.9997 15.0007 19.9997C14.6692 19.9997 14.3513 19.868 14.1169 19.6337L7.04567 12.5624C6.92629 12.4471 6.83106 12.3092 6.76555 12.1567C6.70003 12.0042 6.66555 11.8402 6.66411 11.6742C6.66267 11.5082 6.69429 11.3436 6.75715 11.19C6.82 11.0364 6.91281 10.8968 7.03018 10.7794C7.14755 10.6621 7.28711 10.5693 7.44073 10.5064C7.59435 10.4436 7.75895 10.4119 7.92492 10.4134C8.0909 10.4148 8.25492 10.4493 8.40743 10.5148C8.55993 10.5803 8.69786 10.6756 8.81317 10.7949L15.0007 16.9824L21.1882 10.7949C21.4239 10.5672 21.7397 10.4412 22.0674 10.4441C22.3952 10.4469 22.7087 10.5784 22.9404 10.8102C23.1722 11.0419 23.3037 11.3554 23.3065 11.6832C23.3094 12.0109 23.1834 12.3267 22.9557 12.5624L15.8844 19.6337Z" fill="black"/>
</g>
<defs>
<clipPath id="clip0_1794_274">
<rect width="30" height="30" fill="white"/>
</clipPath>
</defs>
</svg>
