<svg width="28" height="28" viewBox="0 0 28 28" fill="none" xmlns="http://www.w3.org/2000/svg">
<path d="M13 2.32837H3.66667C2.95942 2.32837 2.28115 2.60932 1.78105 3.10942C1.28095 3.60951 1 4.28779 1 4.99504V23.6617C1 24.3689 1.28095 25.0472 1.78105 25.5473C2.28115 26.0474 2.95942 26.3284 3.66667 26.3284H22.3333C23.0406 26.3284 23.7189 26.0474 24.219 25.5473C24.719 25.0472 25 24.3689 25 23.6617V14.3284" stroke="white" stroke-width="2" stroke-linecap="round" stroke-linejoin="round"/>
<path d="M21.4998 1.82843C22.0302 1.29799 22.7497 1 23.4998 1C24.2499 1 24.9694 1.29799 25.4998 1.82843C26.0302 2.35886 26.3282 3.07828 26.3282 3.82843C26.3282 4.57857 26.0302 5.29799 25.4998 5.82843L13.4825 17.8471C13.1659 18.1634 12.7747 18.395 12.3451 18.5204L8.51447 19.6404C8.39973 19.6739 8.27812 19.6759 8.16234 19.6462C8.04657 19.6166 7.9409 19.5563 7.85639 19.4718C7.77189 19.3873 7.71165 19.2817 7.68199 19.1659C7.65233 19.0501 7.65434 18.9285 7.6878 18.8138L8.8078 14.9831C8.93383 14.5538 9.16585 14.1632 9.48247 13.8471L21.4998 1.82843Z" stroke="white" stroke-width="2" stroke-linecap="round" stroke-linejoin="round"/>
</svg>
