<svg width="11" height="11" viewBox="0 0 11 11" fill="none" xmlns="http://www.w3.org/2000/svg">
<g opacity="0.6">
<path fill-rule="evenodd" clip-rule="evenodd" d="M8.62699 5.96019L9.49958 6.06924C9.25784 8.02289 7.59203 9.53516 5.57297 9.53516C4.32997 9.53516 3.22084 8.96198 2.49546 8.06553L2.4955 9.53516H1.61621V6.45769H4.69368V7.33695L3.04736 7.33734C3.60351 8.1344 4.52735 8.65587 5.57297 8.65587C7.14333 8.65587 8.43898 7.47968 8.62699 5.96019ZM9.52973 1.62164V4.69911H6.45225V3.81985L8.0988 3.81979C7.54267 3.02254 6.61873 2.50093 5.57297 2.50093C4.00259 2.50093 2.70694 3.67714 2.51893 5.19664L1.64636 5.08758C1.88807 3.13393 3.55391 1.62164 5.57297 1.62164C6.81597 1.62164 7.9251 2.19482 8.65048 3.09127L8.65044 1.62164H9.52973Z" fill="black"/>
</g>
</svg>
