<svg width="217" height="217" viewBox="0 0 217 217" fill="none" xmlns="http://www.w3.org/2000/svg">
<mask id="path-1-inside-1_2547_3431" fill="white">
<path d="M182.611 48.2029C188.16 43.6885 189.048 35.4638 183.905 30.4916C168.891 15.9767 149.931 6.03528 129.254 2.00454C104.319 -2.85626 78.4695 1.187 56.2099 13.4296C33.9502 25.6722 16.6925 45.3378 7.44441 68.9989C-1.80364 92.6599 -2.4555 118.816 5.60243 142.908C13.6604 167.001 29.9171 187.502 51.5392 200.838C73.1614 214.174 98.7778 219.5 123.924 215.887C149.07 212.275 172.151 199.952 189.144 181.068C203.235 165.409 212.399 146.061 215.66 125.434C216.776 118.369 211.119 112.333 203.97 112.066C196.822 111.798 190.912 117.416 189.532 124.435C186.668 138.992 179.918 152.593 169.887 163.74C156.952 178.115 139.382 187.495 120.24 190.245C101.098 192.995 81.5981 188.941 65.1387 178.789C48.6793 168.637 36.3042 153.031 30.1703 134.691C24.0364 116.352 24.5326 96.4409 31.5724 78.4294C38.6123 60.418 51.7494 45.448 68.6941 36.1285C85.6387 26.8091 105.316 23.7313 124.297 27.4315C139.016 30.3006 152.591 37.1039 163.636 47.0092C168.962 51.7853 177.062 52.7172 182.611 48.2029Z"/>
</mask>
<path d="M182.611 48.2029C188.16 43.6885 189.048 35.4638 183.905 30.4916C168.891 15.9767 149.931 6.03528 129.254 2.00454C104.319 -2.85626 78.4695 1.187 56.2099 13.4296C33.9502 25.6722 16.6925 45.3378 7.44441 68.9989C-1.80364 92.6599 -2.4555 118.816 5.60243 142.908C13.6604 167.001 29.9171 187.502 51.5392 200.838C73.1614 214.174 98.7778 219.5 123.924 215.887C149.07 212.275 172.151 199.952 189.144 181.068C203.235 165.409 212.399 146.061 215.66 125.434C216.776 118.369 211.119 112.333 203.97 112.066C196.822 111.798 190.912 117.416 189.532 124.435C186.668 138.992 179.918 152.593 169.887 163.74C156.952 178.115 139.382 187.495 120.24 190.245C101.098 192.995 81.5981 188.941 65.1387 178.789C48.6793 168.637 36.3042 153.031 30.1703 134.691C24.0364 116.352 24.5326 96.4409 31.5724 78.4294C38.6123 60.418 51.7494 45.448 68.6941 36.1285C85.6387 26.8091 105.316 23.7313 124.297 27.4315C139.016 30.3006 152.591 37.1039 163.636 47.0092C168.962 51.7853 177.062 52.7172 182.611 48.2029Z" fill="url(#paint0_radial_2547_3431)" stroke="black" stroke-width="2" mask="url(#path-1-inside-1_2547_3431)"/>
<circle cx="2.5579" cy="2.5579" r="2.5579" transform="matrix(-0.95483 -0.297151 -0.297151 0.95483 177.188 31.5195)" fill="black"/>
<circle cx="2.5579" cy="2.5579" r="2.5579" transform="matrix(-0.95483 -0.297151 -0.297151 0.95483 183.117 36.5742)" fill="black"/>
<path d="M174.038 44.9288C169.203 45.7618 168.174 42.6829 168.348 40.0497C168.396 39.3156 169.249 39.0276 169.815 39.4972L174.413 43.3096C175.024 43.8165 174.82 44.794 174.038 44.9288Z" fill="black"/>
<defs>
<radialGradient id="paint0_radial_2547_3431" cx="0" cy="0" r="1" gradientUnits="userSpaceOnUse" gradientTransform="translate(108.495 108.495) rotate(90) scale(108.495)">
<stop offset="0.711538" stop-color="#987365"/>
<stop offset="0.918269" stop-color="#FEC0A9"/>
<stop offset="1" stop-color="#987365"/>
</radialGradient>
</defs>
</svg>
