<svg width="69" height="87" viewBox="0 0 69 87" fill="none" xmlns="http://www.w3.org/2000/svg">
<path d="M50.774 57.5022C45.2071 69.1701 34.1993 70.896 21.6786 64.9203C9.15794 58.9445 1.72544 51.0794 7.29227 39.4115C12.8591 27.7437 53.9055 13.3183 53.9055 13.3183C53.9055 13.3183 47.8814 23.4077 50.774 38.0196C52.2203 45.3256 53.4811 51.8281 50.774 57.5022Z" fill="white"/>
<path d="M34.4367 39.41C30.699 47.2237 26.7782 61.3278 19.8189 59.5883C12.8595 57.8487 25.8094 43.0398 29.9146 37.3226C34.0199 31.6053 50.4327 16.7959 50.4327 16.7959C50.4327 16.7959 38.1743 31.5963 34.4367 39.41Z" fill="#2E4F39"/>
<path d="M24.0515 80.1729C8.14802 70.9476 20.6128 61.0194 19.4758 60.2844C18.3318 59.545 13.9123 65.503 10.7772 71.7653C9.97643 73.3647 7.67182 79.3298 7.32565 80.2286C7.30375 80.2854 7.34737 80.3422 7.4083 80.3422L24.0175 80.3422C24.1067 80.3422 24.1286 80.2177 24.0515 80.1729Z" fill="white"/>
</svg>
