<svg width="36" height="36" viewBox="0 0 36 36" fill="none" xmlns="http://www.w3.org/2000/svg">
<circle cx="18" cy="18" r="18" fill="#A8A8A8"/>
<path d="M17.3483 18.0115C15.0272 16.5466 10.9216 12.6403 15.2061 9.71055C16.3029 8.96054 19.4906 8.24568 22.1684 10.6871C23.1892 11.6178 22.8486 12.5417 20.5617 14.1052C19.5313 14.8093 18.0981 15.9607 18.955 17.5232C20.5617 15.4079 24.8462 11.6637 28.0596 15.5701C28.8822 16.5711 29.6663 19.4764 26.9885 21.9179C25.9677 22.8485 24.9544 22.538 23.2395 20.453C22.4672 19.5145 21.2044 18.2068 19.4906 18.9881C21.8117 20.453 25.9173 24.3593 21.6328 27.2891C20.5349 28.0401 17.3483 28.7539 14.6705 26.3125C13.6497 25.3818 13.9904 24.4589 16.2772 22.8944C17.3066 22.1913 18.7408 21.0389 17.8839 19.4764C16.2772 21.5927 11.9927 25.3359 8.77934 21.4296C7.95671 20.4295 7.17265 17.5232 9.85046 15.0818C10.8712 14.1511 11.8845 14.4616 13.5994 16.5466C14.3717 17.4861 15.6345 18.7928 17.3483 18.0115Z" fill="white"/>
</svg>
