<svg width="16" height="15" viewBox="0 0 16 15" fill="none" xmlns="http://www.w3.org/2000/svg">
<path fill-rule="evenodd" clip-rule="evenodd" d="M2.62479 6.15102C4.93717 2.05008 6.09336 0 7.92472 0C9.75608 0 10.9123 2.05008 13.2246 6.15102L13.5131 6.66136C15.4348 10.0689 16.396 11.7727 15.5275 13.0184C14.659 14.2642 12.5099 14.2642 8.21317 14.2642H7.63627C3.33959 14.2642 1.19045 14.2642 0.321926 13.0184C-0.546602 11.7727 0.414643 10.0689 2.33634 6.66136L2.62479 6.15102ZM7.92472 3.36792C8.08235 3.36792 8.23352 3.43054 8.34498 3.542C8.45644 3.65346 8.51906 3.80464 8.51906 3.96226V7.92453C8.51906 8.08216 8.45644 8.23333 8.34498 8.34479C8.23352 8.45625 8.08235 8.51887 7.92472 8.51887C7.76709 8.51887 7.61592 8.45625 7.50446 8.34479C7.393 8.23333 7.33038 8.08216 7.33038 7.92453V3.96226C7.33038 3.80464 7.393 3.65346 7.50446 3.542C7.61592 3.43054 7.76709 3.36792 7.92472 3.36792ZM7.92472 11.0943C8.13489 11.0943 8.33645 11.0108 8.48507 10.8622C8.63368 10.7136 8.71717 10.5121 8.71717 10.3019C8.71717 10.0917 8.63368 9.89015 8.48507 9.74154C8.33645 9.59292 8.13489 9.50943 7.92472 9.50943C7.71455 9.50943 7.51298 9.59292 7.36437 9.74154C7.21576 9.89015 7.13227 10.0917 7.13227 10.3019C7.13227 10.5121 7.21576 10.7136 7.36437 10.8622C7.51298 11.0108 7.71455 11.0943 7.92472 11.0943Z" fill="white"/>
</svg>
