<svg width="24" height="24" viewBox="0 0 24 24" fill="none" xmlns="http://www.w3.org/2000/svg">
<path d="M14.8245 17.1344V19.0993H13.5146V17.1344C13.5146 16.414 12.9251 15.8245 12.2046 15.8245H10.2397C8.40583 15.8245 6.9649 14.3836 6.9649 12.5497C6.9649 11.7637 7.22689 11.1087 7.68537 10.5193C6.17894 10.2573 5 8.88186 5 7.30993C5 6.85146 5.13099 6.39298 5.26199 6H6.83391C6.50643 6.32748 6.30993 6.78596 6.30993 7.30993C6.30993 8.42338 7.16139 9.27484 8.27484 9.27484H10.2397V10.5848C9.1263 10.5848 8.27484 11.4362 8.27484 12.5497C8.27484 13.6631 9.1263 14.5146 10.2397 14.5146H12.2046C13.6456 14.5146 14.8245 15.6935 14.8245 17.1344ZM15.414 10.5193C16.9204 10.2573 18.0993 8.88186 18.0993 7.30993C18.0993 6.85146 17.9684 6.39298 17.8374 6H16.2654C16.5929 6.32748 16.7894 6.78596 16.7894 7.30993C16.7894 8.42338 15.938 9.27484 14.8245 9.27484H14.0386C14.104 9.47133 14.1695 9.66782 14.1695 9.9298C14.1695 11.0432 13.3181 11.8947 12.2046 11.8947V13.2046C14.0386 13.2046 15.4795 14.6456 15.4795 16.4795V19.0993H16.7894V16.4795C16.7894 14.7111 15.807 13.2046 14.3005 12.4187C14.89 11.9602 15.283 11.3052 15.414 10.5193Z" fill="black"/>
</svg>
