<svg width="23" height="23" viewBox="0 0 23 23" fill="none" xmlns="http://www.w3.org/2000/svg">
<path d="M11.3234 17.0208C10.0332 17.0488 8.78455 16.5642 7.85098 15.6732C6.91741 14.7823 6.37506 13.5576 6.34277 12.2675C6.36258 11.3561 6.63672 10.4685 7.13424 9.7047L10.4088 4.83001C10.5096 4.68003 10.6458 4.55714 10.8053 4.47218C10.9648 4.38721 11.1427 4.34277 11.3234 4.34277C11.5041 4.34277 11.6821 4.38721 11.8416 4.47218C12.0011 4.55714 12.1372 4.68003 12.238 4.83001L15.4528 9.60871C15.9842 10.3957 16.2796 11.3182 16.3041 12.2675C16.2718 13.5576 15.7294 14.7823 14.7959 15.6732C13.8623 16.5642 12.6136 17.0488 11.3234 17.0208ZM11.3234 6.71541L8.66466 10.67C8.34813 11.1442 8.17116 11.6977 8.15392 12.2675C8.21438 13.0667 8.57454 13.8136 9.16227 14.3585C9.75001 14.9035 10.5219 15.2063 11.3234 15.2063C12.1249 15.2063 12.8968 14.9035 13.4846 14.3585C14.0723 13.8136 14.4325 13.0667 14.4929 12.2675C14.4717 11.6603 14.2734 11.0726 13.9224 10.5768L11.3234 6.71541Z" fill="black"/>
</svg>
