<svg width="37" height="37" viewBox="0 0 37 37" fill="none" xmlns="http://www.w3.org/2000/svg">
<g opacity="0.6">
<path d="M26.4128 23.8242L21.2352 14.9484V10.1558H22.2484C22.5171 10.1558 22.7749 10.0491 22.9649 9.85907C23.1549 9.66906 23.2616 9.41134 23.2616 9.14262C23.2616 8.87389 23.1549 8.61618 22.9649 8.42616C22.7749 8.23614 22.5171 8.12939 22.2484 8.12939H14.1426C13.8739 8.12939 13.6162 8.23614 13.4262 8.42616C13.2362 8.61618 13.1294 8.87389 13.1294 9.14262C13.1294 9.41134 13.2362 9.66906 13.4262 9.85907C13.6162 10.0491 13.8739 10.1558 14.1426 10.1558H15.1559V14.9484L9.9783 23.8242C9.70933 24.2859 9.56685 24.8104 9.5652 25.3448C9.56355 25.8792 9.70281 26.4045 9.96893 26.8679C10.235 27.3313 10.6186 27.7164 11.081 27.9843C11.5434 28.2522 12.0682 28.3934 12.6025 28.3938H23.748C24.2824 28.3934 24.8072 28.2522 25.2695 27.9843C25.7319 27.7164 26.1155 27.3313 26.3816 26.8679C26.6477 26.4045 26.787 25.8792 26.7853 25.3448C26.7837 24.8104 26.6412 24.2859 26.3722 23.8242H26.4128ZM17.0405 15.7184C17.1298 15.568 17.1787 15.3969 17.1823 15.2219V10.1558H19.2087V15.2219C19.2106 15.4004 19.2595 15.5751 19.3506 15.7286L20.222 17.2484H16.1691L17.0405 15.7184ZM24.6599 25.8506C24.5715 26.0038 24.4445 26.1311 24.2917 26.22C24.1388 26.3089 23.9653 26.3562 23.7885 26.3573H12.6431C12.4663 26.3562 12.2928 26.3089 12.1399 26.22C11.9871 26.1311 11.8601 26.0038 11.7717 25.8506C11.6828 25.6966 11.636 25.5219 11.636 25.344C11.636 25.1662 11.6828 24.9914 11.7717 24.8374L14.9836 19.2748H21.4176L24.6599 24.8476C24.7488 25.0016 24.7956 25.1763 24.7956 25.3542C24.7956 25.532 24.7488 25.7067 24.6599 25.8608V25.8506ZM16.1691 21.3013C15.9687 21.3013 15.7728 21.3607 15.6062 21.472C15.4395 21.5834 15.3097 21.7416 15.233 21.9268C15.1563 22.1119 15.1362 22.3156 15.1753 22.5122C15.2144 22.7087 15.3109 22.8893 15.4526 23.031C15.5943 23.1727 15.7749 23.2692 15.9714 23.3083C16.168 23.3473 16.3717 23.3273 16.5568 23.2506C16.742 23.1739 16.9002 23.044 17.0115 22.8774C17.1229 22.7108 17.1823 22.5149 17.1823 22.3145C17.1823 22.0458 17.0756 21.7881 16.8855 21.598C16.6955 21.408 16.4378 21.3013 16.1691 21.3013ZM20.222 22.3145C20.0216 22.3145 19.8257 22.3739 19.6591 22.4853C19.4924 22.5966 19.3626 22.7548 19.2859 22.94C19.2092 23.1251 19.1891 23.3288 19.2282 23.5254C19.2673 23.7219 19.3638 23.9025 19.5055 24.0442C19.6472 24.1859 19.8278 24.2824 20.0243 24.3215C20.2208 24.3606 20.4246 24.3405 20.6097 24.2638C20.7949 24.1871 20.9531 24.0573 21.0644 23.8906C21.1758 23.724 21.2352 23.5281 21.2352 23.3277C21.2352 23.059 21.1284 22.8013 20.9384 22.6113C20.7484 22.4212 20.4907 22.3145 20.222 22.3145Z" fill="black"/>
</g>
</svg>
