<svg width="24" height="24" viewBox="0 0 24 24" fill="none" xmlns="http://www.w3.org/2000/svg">
<path d="M17.0207 18.1889C16.1936 18.2068 15.393 17.8961 14.7945 17.3249C14.196 16.7537 13.8483 15.9686 13.8276 15.1415C13.8403 14.5573 14.0161 13.9882 14.335 13.4985L16.4343 10.3734C16.499 10.2772 16.5863 10.1985 16.6885 10.144C16.7908 10.0895 16.9048 10.061 17.0207 10.061C17.1366 10.061 17.2506 10.0895 17.3529 10.144C17.4551 10.1985 17.5424 10.2772 17.6071 10.3734L19.668 13.437C20.0087 13.9415 20.1981 14.5329 20.2138 15.1415C20.1931 15.9686 19.8454 16.7537 19.2469 17.3249C18.6484 17.8961 17.8478 18.2068 17.0207 18.1889ZM17.0207 11.5821L15.3162 14.1174C15.1133 14.4214 14.9998 14.7762 14.9888 15.1415C15.0275 15.6539 15.2584 16.1327 15.6352 16.4821C16.012 16.8314 16.5069 17.0256 17.0207 17.0256C17.5345 17.0256 18.0294 16.8314 18.4062 16.4821C18.783 16.1327 19.0139 15.6539 19.0526 15.1415C19.039 14.7523 18.9119 14.3755 18.6869 14.0576L17.0207 11.5821Z" fill="black"/>
<path d="M5.69994 10.0611C6.02057 10.0611 6.2805 9.80121 6.2805 9.48058C6.2805 9.15995 6.02057 8.90002 5.69994 8.90002C5.37931 8.90002 5.11938 9.15995 5.11938 9.48058C5.11938 9.80121 5.37931 10.0611 5.69994 10.0611Z" fill="black"/>
<path d="M9.18334 13.5444C9.50397 13.5444 9.7639 13.2845 9.7639 12.9639C9.7639 12.6432 9.50397 12.3833 9.18334 12.3833C8.86271 12.3833 8.60278 12.6432 8.60278 12.9639C8.60278 13.2845 8.86271 13.5444 9.18334 13.5444Z" fill="black"/>
<path d="M11.5056 17.0278C11.8262 17.0278 12.0862 16.7679 12.0862 16.4473C12.0862 16.1266 11.8262 15.8667 11.5056 15.8667C11.185 15.8667 10.925 16.1266 10.925 16.4473C10.925 16.7679 11.185 17.0278 11.5056 17.0278Z" fill="black"/>
<path d="M12.6667 11.2221C12.9874 11.2221 13.2473 10.9622 13.2473 10.6416C13.2473 10.321 12.9874 10.061 12.6667 10.061C12.3461 10.061 12.0862 10.321 12.0862 10.6416C12.0862 10.9622 12.3461 11.2221 12.6667 11.2221Z" fill="black"/>
<path d="M10.3445 8.90001C10.6651 8.90001 10.925 8.64008 10.925 8.31945C10.925 7.99882 10.6651 7.73889 10.3445 7.73889C10.0238 7.73889 9.76392 7.99882 9.76392 8.31945C9.76392 8.64008 10.0238 8.90001 10.3445 8.90001Z" fill="black"/>
<path d="M18.4722 8.90001C18.7928 8.90001 19.0527 8.64008 19.0527 8.31945C19.0527 7.99882 18.7928 7.73889 18.4722 7.73889C18.1515 7.73889 17.8916 7.99882 17.8916 8.31945C17.8916 8.64008 18.1515 8.90001 18.4722 8.90001Z" fill="black"/>
<path d="M8.02221 18.1889C8.34284 18.1889 8.60276 17.929 8.60276 17.6084C8.60276 17.2878 8.34284 17.0278 8.02221 17.0278C7.70157 17.0278 7.44165 17.2878 7.44165 17.6084C7.44165 17.929 7.70157 18.1889 8.02221 18.1889Z" fill="black"/>
<path d="M4.53881 14.7055C4.85944 14.7055 5.11937 14.4456 5.11937 14.125C5.11937 13.8044 4.85944 13.5444 4.53881 13.5444C4.21818 13.5444 3.95825 13.8044 3.95825 14.125C3.95825 14.4456 4.21818 14.7055 4.53881 14.7055Z" fill="black"/>
<path d="M3.95825 5.41663H20.2138V6.57774H3.95825V5.41663Z" fill="black"/>
</svg>
