<svg width="24" height="24" viewBox="0 0 24 24" fill="none" xmlns="http://www.w3.org/2000/svg">
<g clip-path="url(#clip0_258_1967)">
<path d="M15.4249 7.21106C15.4249 6.38404 15.0964 5.59089 14.5116 5.0061C13.9268 4.42131 13.1337 4.09277 12.3066 4.09277C11.4796 4.09277 10.6865 4.42131 10.1017 5.0061C9.51689 5.59089 9.18835 6.38404 9.18835 7.21106V13.7525C9.18925 13.7934 9.17436 13.8331 9.14678 13.8634C8.71131 14.3726 8.40536 14.9795 8.25499 15.6325C8.10461 16.2854 8.11427 16.965 8.28313 17.6134C8.45199 18.2618 8.77505 18.8598 9.22481 19.3564C9.67456 19.8531 10.2377 20.2337 10.8662 20.4658C11.4947 20.6979 12.1701 20.7747 12.8347 20.6896C13.4993 20.6045 14.1335 20.3601 14.6832 19.9771C15.233 19.5941 15.6821 19.0839 15.9922 18.49C16.3023 17.896 16.4643 17.2359 16.4643 16.5659C16.4644 15.5749 16.1106 14.6165 15.4665 13.8634C15.4389 13.8331 15.424 13.7934 15.4249 13.7525V7.21106ZM12.3066 19.3377C11.7556 19.3382 11.2169 19.1744 10.7593 18.8673C10.3018 18.5601 9.94618 18.1236 9.73794 17.6134C9.52969 17.1032 9.47825 16.5425 9.59019 16.0029C9.70212 15.4633 9.97236 14.9693 10.3664 14.5841C10.4318 14.5199 10.4839 14.4434 10.5196 14.3589C10.5553 14.2744 10.5739 14.1838 10.5743 14.0921V7.21106C10.5743 6.7516 10.7568 6.31096 11.0817 5.98608C11.4065 5.6612 11.8472 5.47868 12.3066 5.47868C12.7661 5.47868 13.2067 5.6612 13.5316 5.98608C13.8565 6.31096 14.039 6.7516 14.039 7.21106V14.0921C14.0394 14.1838 14.058 14.2744 14.0937 14.3589C14.1293 14.4434 14.1814 14.5199 14.2469 14.5841C14.6409 14.9693 14.9112 15.4633 15.0231 16.0029C15.135 16.5425 15.0836 17.1032 14.8753 17.6134C14.6671 18.1236 14.3115 18.5601 13.854 18.8673C13.3964 19.1744 12.8577 19.3382 12.3066 19.3377Z" fill="black"/>
<path d="M13.0757 15.4156C13.0524 15.3991 13.0333 15.3773 13.0201 15.352C13.0068 15.3267 12.9998 15.2987 12.9995 15.2701V9.98287C12.9995 9.79909 12.9265 9.62283 12.7965 9.49288C12.6666 9.36292 12.4903 9.28992 12.3066 9.28992C12.1228 9.28992 11.9465 9.36292 11.8166 9.49288C11.6866 9.62283 11.6136 9.79909 11.6136 9.98287V15.2701C11.6133 15.2987 11.6063 15.3267 11.593 15.352C11.5798 15.3773 11.5607 15.3991 11.5374 15.4156C11.29 15.5807 11.1022 15.8209 11.0019 16.1009C10.9016 16.3809 10.894 16.6857 10.9802 16.9703C11.0664 17.255 11.2419 17.5043 11.4808 17.6815C11.7196 17.8587 12.0092 17.9544 12.3066 17.9544C12.604 17.9544 12.8935 17.8587 13.1323 17.6815C13.3712 17.5043 13.5467 17.255 13.6329 16.9703C13.7192 16.6857 13.7115 16.3809 13.6112 16.1009C13.5109 15.8209 13.3231 15.5807 13.0757 15.4156Z" fill="black"/>
</g>
<defs>
<clipPath id="clip0_258_1967">
<rect width="16.6308" height="16.6308" fill="white" transform="translate(3.99121 4.09277)"/>
</clipPath>
</defs>
</svg>
