<svg width="14" height="14" viewBox="0 0 14 14" fill="none" xmlns="http://www.w3.org/2000/svg">
<path d="M6.41629 6.70832C5.15221 5.83332 2.91629 3.49999 5.24962 1.74999C5.84696 1.30199 7.58296 0.874988 9.04129 2.33332C9.59721 2.88924 9.41171 3.44107 8.16629 4.37499C7.60512 4.79557 6.82462 5.48332 7.29129 6.41665C8.16629 5.15315 10.4996 2.91665 12.2496 5.24999C12.6976 5.8479 13.1246 7.58332 11.6663 9.04165C11.1104 9.59757 10.5585 9.41207 9.62462 8.16665C9.20404 7.60607 8.51629 6.82499 7.58296 7.29165C8.84704 8.16665 11.083 10.5 8.74962 12.25C8.15171 12.6986 6.41629 13.125 4.95796 11.6667C4.40204 11.1107 4.58754 10.5595 5.83296 9.62499C6.39354 9.20499 7.17462 8.51665 6.70796 7.58332C5.83296 8.8474 3.49962 11.0833 1.74962 8.74999C1.30162 8.15265 0.874622 6.41665 2.33296 4.95832C2.88887 4.4024 3.44071 4.5879 4.37462 5.83332C4.79521 6.39449 5.48296 7.17499 6.41629 6.70832Z" fill="black"/>
</svg>
