<svg width="24" height="24" viewBox="0 0 24 24" fill="none" xmlns="http://www.w3.org/2000/svg">
<g opacity="0.67">
<path d="M12.2749 19C12.4749 18.9833 12.6459 18.904 12.7879 18.762C12.9299 18.62 13.0006 18.4493 12.9999 18.25C12.9999 18.0167 12.9249 17.8293 12.7749 17.688C12.6249 17.5467 12.4333 17.484 12.1999 17.5C11.5166 17.55 10.7916 17.3627 10.0249 16.938C9.25825 16.5133 8.77492 15.7423 8.57492 14.625C8.54159 14.4417 8.45425 14.2917 8.31292 14.175C8.17159 14.0583 8.00892 14 7.82492 14C7.59159 14 7.39992 14.0877 7.24992 14.263C7.09992 14.4383 7.04992 14.6423 7.09992 14.875C7.38325 16.3917 8.04992 17.475 9.09992 18.125C10.1499 18.775 11.2083 19.0667 12.2749 19ZM11.9999 22C9.71659 22 7.81259 21.2167 6.28792 19.65C4.76325 18.0833 4.00059 16.1333 3.99992 13.8C3.99992 12.1333 4.66259 10.321 5.98792 8.363C7.31325 6.405 9.31725 4.284 11.9999 2C14.6833 4.28333 16.6876 6.40433 18.0129 8.363C19.3383 10.3217 20.0006 12.134 19.9999 13.8C19.9999 16.1333 19.2376 18.0833 17.7129 19.65C16.1883 21.2167 14.2839 22 11.9999 22Z" fill="black"/>
</g>
</svg>
