<svg width="152" height="53" viewBox="0 0 152 53" fill="none" xmlns="http://www.w3.org/2000/svg">
<path d="M0.183082 38V37.6338L2.05052 37.2677L12.4862 12.0756H18.0519L28.0848 37.2677L29.8424 37.6338V38H15.8183V37.8169L18.3814 37.3043L10.9117 18.5567H10.4357L10.2892 18.9229C9.45923 20.9978 8.82455 22.9873 8.38515 24.8913C7.97017 26.771 7.76268 28.4309 7.76268 29.8712C7.76268 31.287 7.97017 32.593 8.38515 33.7891C8.82455 34.9608 9.48365 35.9007 10.3624 36.6086C11.2656 37.2921 12.4252 37.6338 13.841 37.6338V38H0.183082ZM6.29802 27.5643V27.1982L14.7198 26.4658V27.5643H6.29802ZM36.2193 38L26.1132 12.8079L24.3556 12.4418V12.0756H38.4529V12.4418L35.8166 12.7713L43.3595 31.5189H43.8355L43.9088 31.3358C44.5435 29.7247 45.0317 28.138 45.3734 26.5757C45.7152 24.989 45.8861 23.5365 45.8861 22.2183C45.8861 19.8993 45.41 17.8976 44.458 16.2132C43.5304 14.5289 42.1878 13.2717 40.4302 12.4418V12.0756H53.7586V12.4418L51.8911 12.8079L41.785 38H36.2193ZM83.4639 38V37.6338L86.0271 37.2677V15.8471C86.0271 15.2124 85.8074 14.6021 85.368 14.0163C84.9286 13.4304 84.2939 12.9056 83.4639 12.4418V12.0756H94.5221L106.532 28.4065H107.155V28.2234C107.155 26.9541 107.045 25.6847 106.825 24.4153C106.605 23.146 106.276 21.9132 105.837 20.7171C105.397 19.5209 104.848 18.398 104.189 17.3484C103.554 16.2987 102.81 15.3589 101.955 14.5289C101.101 13.6745 100.149 12.9788 99.0991 12.4418V12.0756H110.78V12.4418L107.704 12.8079V38H102.907L87.1256 16.9822H86.5763V17.1653C86.5763 18.9229 86.6862 20.6194 86.9059 22.255C87.1256 23.8905 87.4795 25.4528 87.9677 26.9418C88.4559 28.4065 89.0784 29.7979 89.8352 31.1161C90.5919 32.4099 91.4951 33.606 92.5448 34.7045C93.6189 35.803 94.8516 36.7795 96.243 37.6338V38H83.4639ZM124.323 12.0756V12.4418L122.492 12.8079V37.2677L124.323 37.6338V38H111.69V37.6338L113.521 37.2677V12.8079L111.69 12.4418V12.0756H124.323ZM150.678 33.3497C149.677 34.6435 148.579 35.6688 147.382 36.4255C146.211 37.1822 144.978 37.7193 143.684 38.0366C142.39 38.3784 141.097 38.5492 139.803 38.5492C137.923 38.5492 136.153 38.2563 134.493 37.6705C132.858 37.0602 131.405 36.1814 130.136 35.0341C128.891 33.8623 127.915 32.4465 127.207 30.7866C126.499 29.1266 126.145 27.2348 126.145 25.111C126.145 22.9873 126.474 21.0954 127.134 19.4355C127.793 17.7511 128.745 16.3231 129.99 15.1514C131.235 13.9552 132.748 13.052 134.53 12.4418C136.312 11.8315 138.338 11.5263 140.608 11.5263C141.951 11.5263 143.257 11.6606 144.526 11.9291C145.82 12.1732 147.004 12.4784 148.078 12.8445C149.152 13.1863 150.031 13.5158 150.714 13.8332L148.518 24.6716H147.785L145.478 19.2158C144.795 17.6047 144.087 16.2621 143.355 15.188C142.647 14.1139 141.902 13.3083 141.121 12.7713C140.364 12.2343 139.571 11.9657 138.741 11.9657C138.155 11.9657 137.63 12.2587 137.166 12.8445C136.703 13.406 136.312 14.1749 135.995 15.1514C135.677 16.1278 135.433 17.2385 135.262 18.4835C135.091 19.704 135.006 20.9856 135.006 22.3282C135.006 23.8417 135.189 25.3307 135.555 26.7954C135.921 28.2356 136.507 29.5538 137.313 30.75C138.143 31.9217 139.205 32.8615 140.499 33.5694C141.817 34.2529 143.403 34.5947 145.259 34.5947C146.162 34.5947 147.041 34.4848 147.895 34.2651C148.749 34.021 149.555 33.6304 150.312 33.0934L150.678 33.3497Z" fill="#425338"/>
<path d="M76.8563 32.5244C73.828 38.8717 67.8397 39.8106 61.0286 36.5598C54.2174 33.309 50.1741 29.0304 53.2025 22.6832C56.2308 16.3359 78.5598 8.48858 78.5598 8.48858C78.5598 8.48858 75.2827 13.9772 76.8563 21.926C77.6431 25.9004 78.329 29.4377 76.8563 32.5244Z" fill="#425338"/>
<path d="M67.9649 22.6818C65.9317 26.9324 63.7988 34.6049 60.0129 33.6586C56.2271 32.7123 63.2717 24.6563 65.505 21.5462C67.7382 18.436 76.6667 10.3798 76.6667 10.3798C76.6667 10.3798 69.9982 18.4311 67.9649 22.6818Z" fill="#FFF9F6"/>
<path d="M62.241 44.8101C53.7125 39.8049 60.449 34.4365 59.8324 34.0379C59.2101 33.6356 56.8059 36.8768 55.1004 40.2834C54.674 41.1352 53.4637 44.2627 53.2361 44.8529C53.2181 44.8996 53.2528 44.9493 53.3029 44.9493L62.2117 44.9493C62.285 44.9493 62.3042 44.8472 62.241 44.8101Z" fill="#425338"/>
</svg>
