<svg width="62" height="62" viewBox="0 0 62 62" fill="none" xmlns="http://www.w3.org/2000/svg">
<path d="M39.6343 44.6834V50.0056H36.0862V44.6834C36.0862 42.732 34.4896 41.1353 32.5381 41.1353H27.2159C22.2485 41.1353 18.3456 37.2324 18.3456 32.265C18.3456 30.1361 19.0552 28.3621 20.2971 26.7654C16.2167 26.0558 13.0234 22.3303 13.0234 18.0725C13.0234 16.8307 13.3782 15.5889 13.7331 14.5244H17.9908C17.1038 15.4114 16.5716 16.6533 16.5716 18.0725C16.5716 21.0884 18.8778 23.3947 21.8937 23.3947H27.2159V26.9428C24.2 26.9428 21.8937 29.2491 21.8937 32.265C21.8937 35.2809 24.2 37.5872 27.2159 37.5872H32.5381C36.441 37.5872 39.6343 40.7805 39.6343 44.6834ZM41.231 26.7654C45.3113 26.0558 48.5046 22.3303 48.5046 18.0725C48.5046 16.8307 48.1498 15.5889 47.795 14.5244H43.5373C44.4243 15.4114 44.9565 16.6533 44.9565 18.0725C44.9565 21.0884 42.6502 23.3947 39.6343 23.3947H37.5055C37.6829 23.9269 37.8603 24.4591 37.8603 25.1688C37.8603 28.1847 35.554 30.491 32.5381 30.491V34.0391C37.5055 34.0391 41.4084 37.942 41.4084 42.9094V50.0056H44.9565V42.9094C44.9565 38.1194 42.2954 34.0391 38.2151 31.9102C39.8117 30.6684 40.8762 28.8943 41.231 26.7654Z" fill="black"/>
</svg>
