<svg width="62" height="62" viewBox="0 0 62 62" fill="none" xmlns="http://www.w3.org/2000/svg">
<path d="M30.6704 46.1027C27.1757 46.1785 23.7935 44.8659 21.2648 42.4526C18.7361 40.0393 17.2671 36.7221 17.1797 33.2277C17.2333 30.7593 17.9759 28.355 19.3235 26.2861L28.193 13.0824C28.4661 12.6762 28.8349 12.3433 29.2669 12.1132C29.6989 11.8831 30.1809 11.7627 30.6704 11.7627C31.1599 11.7627 31.6419 11.8831 32.0739 12.1132C32.5059 12.3433 32.8747 12.6762 33.1478 13.0824L41.8554 26.0261C43.2948 28.1578 44.0947 30.6565 44.1611 33.2277C44.0736 36.7221 42.6046 40.0393 40.0759 42.4526C37.5472 44.8659 34.165 46.1785 30.6704 46.1027ZM30.6704 18.1893L23.4688 28.9009C22.6114 30.1851 22.1321 31.6843 22.0854 33.2277C22.2492 35.3925 23.2247 37.4155 24.8166 38.8916C26.4086 40.3676 28.4994 41.1878 30.6704 41.1878C32.8413 41.1878 34.9322 40.3676 36.5241 38.8916C38.1161 37.4155 39.0916 35.3925 39.2554 33.2277C39.1978 31.5832 38.6607 29.9914 37.7101 28.6482L30.6704 18.1893Z" fill="black"/>
</svg>
