<svg width="62" height="62" viewBox="0 0 62 62" fill="none" xmlns="http://www.w3.org/2000/svg">
<path d="M44.3754 47.5396C42.135 47.5882 39.9667 46.7467 38.3455 45.1995C36.7244 43.6524 35.7826 41.5257 35.7266 39.2855C35.761 37.703 36.237 36.1616 37.1009 34.8353L42.7871 26.3705C42.9622 26.1101 43.1986 25.8967 43.4756 25.7491C43.7526 25.6016 44.0616 25.5244 44.3754 25.5244C44.6892 25.5244 44.9982 25.6016 45.2751 25.7491C45.5521 25.8967 45.7885 26.1101 45.9636 26.3705L51.546 34.6686C52.4688 36.0352 52.9816 37.6371 53.0242 39.2855C52.9681 41.5257 52.0263 43.6524 50.4052 45.1995C48.7841 46.7467 46.6158 47.5882 44.3754 47.5396ZM44.3754 29.6445L39.7585 36.5116C39.2088 37.3349 38.9015 38.296 38.8716 39.2855C38.9766 40.6733 39.602 41.9703 40.6226 42.9166C41.6432 43.8629 42.9836 44.3887 44.3754 44.3887C45.7672 44.3887 47.1076 43.8629 48.1282 42.9166C49.1487 41.9703 49.7742 40.6733 49.8791 39.2855C49.8423 38.2312 49.4979 37.2107 48.8885 36.3496L44.3754 29.6445Z" fill="black"/>
<path d="M13.7131 25.5244C14.5816 25.5244 15.2856 24.8204 15.2856 23.9519C15.2856 23.0834 14.5816 22.3794 13.7131 22.3794C12.8447 22.3794 12.1406 23.0834 12.1406 23.9519C12.1406 24.8204 12.8447 25.5244 13.7131 25.5244Z" fill="black"/>
<path d="M23.1506 34.9595C24.0191 34.9595 24.7231 34.2554 24.7231 33.387C24.7231 32.5185 24.0191 31.8145 23.1506 31.8145C22.2822 31.8145 21.5781 32.5185 21.5781 33.387C21.5781 34.2554 22.2822 34.9595 23.1506 34.9595Z" fill="black"/>
<path d="M29.4397 44.3945C30.3082 44.3945 31.0122 43.6905 31.0122 42.822C31.0122 41.9535 30.3082 41.2495 29.4397 41.2495C28.5712 41.2495 27.8672 41.9535 27.8672 42.822C27.8672 43.6905 28.5712 44.3945 29.4397 44.3945Z" fill="black"/>
<path d="M32.5881 28.6694C33.4566 28.6694 34.1606 27.9654 34.1606 27.0969C34.1606 26.2285 33.4566 25.5244 32.5881 25.5244C31.7197 25.5244 31.0156 26.2285 31.0156 27.0969C31.0156 27.9654 31.7197 28.6694 32.5881 28.6694Z" fill="black"/>
<path d="M26.2913 22.3794C27.1597 22.3794 27.8638 21.6754 27.8638 20.8069C27.8638 19.9384 27.1597 19.2344 26.2913 19.2344C25.4228 19.2344 24.7188 19.9384 24.7188 20.8069C24.7188 21.6754 25.4228 22.3794 26.2913 22.3794Z" fill="black"/>
<path d="M48.3069 22.3794C49.1754 22.3794 49.8794 21.6754 49.8794 20.8069C49.8794 19.9384 49.1754 19.2344 48.3069 19.2344C47.4384 19.2344 46.7344 19.9384 46.7344 20.8069C46.7344 21.6754 47.4384 22.3794 48.3069 22.3794Z" fill="black"/>
<path d="M20.0022 47.5396C20.8707 47.5396 21.5747 46.8355 21.5747 45.967C21.5747 45.0986 20.8707 44.3945 20.0022 44.3945C19.1337 44.3945 18.4297 45.0986 18.4297 45.967C18.4297 46.8355 19.1337 47.5396 20.0022 47.5396Z" fill="black"/>
<path d="M10.5725 38.1045C11.441 38.1045 12.145 37.4005 12.145 36.532C12.145 35.6635 11.441 34.9595 10.5725 34.9595C9.70404 34.9595 9 35.6635 9 36.532C9 37.4005 9.70404 38.1045 10.5725 38.1045Z" fill="black"/>
<path d="M9 12.9443H53.0303V16.0894H9V12.9443Z" fill="black"/>
</svg>
