<svg width="62" height="62" viewBox="0 0 62 62" fill="none" xmlns="http://www.w3.org/2000/svg">
<g clip-path="url(#clip0_2446_3952)">
<path d="M39.1532 17.8047C39.1532 15.5646 38.2634 13.4162 36.6794 11.8322C35.0954 10.2483 32.9471 9.3584 30.707 9.3584C28.4669 9.3584 26.3186 10.2483 24.7346 11.8322C23.1506 13.4162 22.2607 15.5646 22.2607 17.8047V35.523C22.2632 35.6339 22.2228 35.7414 22.1481 35.8233C20.9686 37.2026 20.1399 38.8465 19.7326 40.6151C19.3253 42.3836 19.3514 44.2244 19.8088 45.9807C20.2662 47.737 21.1412 49.3567 22.3595 50.7019C23.5777 52.0472 25.103 53.078 26.8054 53.7068C28.5079 54.3355 30.3371 54.5435 32.1372 54.313C33.9374 54.0826 35.6552 53.4204 37.1443 52.383C38.6334 51.3456 39.8498 49.9637 40.6898 48.355C41.5298 46.7462 41.9685 44.9583 41.9687 43.1434C41.9689 40.4593 41.0104 37.8633 39.2659 35.8233C39.1911 35.7414 39.1508 35.6339 39.1532 35.523V17.8047ZM30.707 50.6512C29.2143 50.6525 27.7552 50.2089 26.5159 49.3769C25.2766 48.545 24.3134 47.3625 23.7493 45.9806C23.1853 44.5986 23.046 43.0799 23.3491 41.6184C23.6523 40.1569 24.3843 38.8189 25.4515 37.7754C25.6289 37.6015 25.77 37.3942 25.8666 37.1655C25.9633 36.9367 26.0136 36.6911 26.0146 36.4427V17.8047C26.0146 16.5602 26.509 15.3666 27.389 14.4867C28.269 13.6067 29.4625 13.1123 30.707 13.1123C31.9515 13.1123 33.145 13.6067 34.025 14.4867C34.905 15.3666 35.3994 16.5602 35.3994 17.8047V36.4427C35.4004 36.6911 35.4507 36.9367 35.5473 37.1655C35.644 37.3942 35.7851 37.6015 35.9624 37.7754C37.0297 38.8189 37.7616 40.1569 38.0648 41.6184C38.368 43.0799 38.2287 44.5986 37.6646 45.9806C37.1006 47.3625 36.1374 48.545 34.8981 49.3769C33.6588 50.2089 32.1996 50.6525 30.707 50.6512Z" fill="black"/>
<path d="M32.7904 40.0277C32.7272 39.9831 32.6756 39.9241 32.6397 39.8556C32.6038 39.787 32.5847 39.7109 32.584 39.6336V25.3125C32.584 24.8147 32.3862 24.3373 32.0342 23.9853C31.6822 23.6333 31.2048 23.4355 30.707 23.4355C30.2092 23.4355 29.7318 23.6333 29.3798 23.9853C29.0278 24.3373 28.8301 24.8147 28.8301 25.3125V39.6336C28.8294 39.7109 28.8103 39.787 28.7744 39.8556C28.7385 39.9241 28.6868 39.9831 28.6236 40.0277C27.9535 40.4748 27.445 41.1256 27.1732 41.884C26.9014 42.6423 26.8808 43.4679 27.1144 44.2389C27.348 45.0098 27.8234 45.6852 28.4703 46.1652C29.1173 46.6452 29.9015 46.9043 30.707 46.9043C31.5126 46.9043 32.2968 46.6452 32.9437 46.1652C33.5907 45.6852 34.0661 45.0098 34.2996 44.2389C34.5332 43.4679 34.5126 42.6423 34.2408 41.884C33.969 41.1256 33.4605 40.4748 32.7904 40.0277Z" fill="black"/>
</g>
<defs>
<clipPath id="clip0_2446_3952">
<rect width="45.0467" height="45.0467" fill="white" transform="translate(8.1875 9.3584)"/>
</clipPath>
</defs>
</svg>
