<svg width="27" height="27" viewBox="0 0 27 27" fill="none" xmlns="http://www.w3.org/2000/svg">
<g opacity="0.4">
<rect width="27" height="27" rx="5.86957" fill="#D9D9D9"/>
<path d="M8.80473 13.5H20.5439C20.6995 13.5 20.8488 13.5618 20.9589 13.6719C21.069 13.782 21.1308 13.9313 21.1308 14.087C21.1308 14.2426 21.069 14.3919 20.9589 14.502C20.8488 14.6121 20.6995 14.6739 20.5439 14.6739H8.80473C8.64906 14.6739 8.49976 14.6121 8.38969 14.502C8.27961 14.3919 8.21777 14.2426 8.21777 14.087C8.21777 13.9313 8.27961 13.782 8.38969 13.6719C8.49976 13.5618 8.64906 13.5 8.80473 13.5Z" fill="black"/>
<path d="M9.04736 14.0869L13.9156 18.9539C14.0258 19.0641 14.0877 19.2136 14.0877 19.3695C14.0877 19.5253 14.0258 19.6748 13.9156 19.785C13.8054 19.8952 13.6559 19.9572 13.5 19.9572C13.3441 19.9572 13.1947 19.8952 13.0844 19.785L7.80184 14.5024C7.74717 14.4479 7.70381 14.3831 7.67422 14.3118C7.64463 14.2405 7.62939 14.1641 7.62939 14.0869C7.62939 14.0097 7.64463 13.9332 7.67422 13.8619C7.70381 13.7906 7.74717 13.7258 7.80184 13.6713L13.0844 8.38869C13.1947 8.27847 13.3441 8.21655 13.5 8.21655C13.6559 8.21655 13.8054 8.27847 13.9156 8.38869C14.0258 8.4989 14.0877 8.64838 14.0877 8.80425C14.0877 8.96012 14.0258 9.1096 13.9156 9.21982L9.04736 14.0869Z" fill="black"/>
</g>
</svg>
