<svg width="24" height="24" viewBox="0 0 24 24" fill="none" xmlns="http://www.w3.org/2000/svg">
<path d="M5.45455 13.0909H1.09091C0.436364 13.0909 0 13.5273 0 14.1818V22.9091C0 23.5636 0.436364 24 1.09091 24H5.45455C6.10909 24 6.54545 23.5636 6.54545 22.9091V14.1818C6.54545 13.5273 6.10909 13.0909 5.45455 13.0909ZM22.9091 8.72727H18.5455C17.8909 8.72727 17.4545 9.16364 17.4545 9.81818V22.9091C17.4545 23.5636 17.8909 24 18.5455 24H22.9091C23.5636 24 24 23.5636 24 22.9091V9.81818C24 9.16364 23.5636 8.72727 22.9091 8.72727ZM14.1818 0H9.81818C9.16364 0 8.72727 0.436364 8.72727 1.09091V22.9091C8.72727 23.5636 9.16364 24 9.81818 24H14.1818C14.8364 24 15.2727 23.5636 15.2727 22.9091V1.09091C15.2727 0.436364 14.8364 0 14.1818 0Z" fill="black"/>
</svg>
