<svg width="43" height="50" viewBox="0 0 43 50" fill="none" xmlns="http://www.w3.org/2000/svg">
<path fill-rule="evenodd" clip-rule="evenodd" d="M31.5 32.5179H31V36.1429H31.5C31.8978 36.1429 32.2794 36.3065 32.5607 36.5979C32.842 36.8892 33 37.2844 33 37.6964C33 38.1085 32.842 38.5036 32.5607 38.795C32.2794 39.0863 31.8978 39.25 31.5 39.25H14.75C13.4902 39.25 12.282 38.7317 11.3912 37.8091C10.5004 36.8865 10 35.6351 10 34.3304V14.9107C10 13.6746 10.4741 12.4891 11.318 11.6151C12.1619 10.741 13.3065 10.25 14.5 10.25H28.5C29.6935 10.25 30.8381 10.741 31.682 11.6151C32.5259 12.4891 33 13.6746 33 14.9107V30.9643C33 31.3763 32.842 31.7715 32.5607 32.0628C32.2794 32.3542 31.8978 32.5179 31.5 32.5179ZM14.75 32.5179H28V36.1429H14.75C14.2859 36.1429 13.8408 35.9519 13.5126 35.612C13.1844 35.2721 13 34.8111 13 34.3304C13 33.8497 13.1844 33.3886 13.5126 33.0487C13.8408 32.7088 14.2859 32.5179 14.75 32.5179ZM21.842 16.1101C21.5882 16.0577 21.3263 16.0643 21.0753 16.1293C20.8242 16.1944 20.5902 16.3163 20.3901 16.4863C20.1901 16.6562 20.0289 16.8701 19.9182 17.1124C19.8075 17.3546 19.75 17.6193 19.75 17.8874C19.75 18.2307 19.6183 18.56 19.3839 18.8028C19.1495 19.0456 18.8315 19.182 18.5 19.182C18.1685 19.182 17.8505 19.0456 17.6161 18.8028C17.3817 18.56 17.25 18.2307 17.25 17.8874C17.25 17.0726 17.4683 16.2739 17.8806 15.5801C18.2929 14.8863 18.8831 14.3246 19.5853 13.9575C20.2876 13.5905 21.0744 13.4325 21.8583 13.5012C22.6421 13.5699 23.3921 13.8625 24.0249 14.3465C24.6576 14.8305 25.1483 15.4869 25.4422 16.2426C25.7361 16.9983 25.8217 17.8237 25.6896 18.6268C25.5574 19.43 25.2127 20.1793 24.6937 20.7916C24.1747 21.4038 23.5018 21.8548 22.75 22.0944C22.7418 22.4378 22.6022 22.7637 22.362 23.0005C22.1217 23.2372 21.8005 23.3655 21.469 23.357C21.1375 23.3484 20.8228 23.2039 20.5942 22.9551C20.3656 22.7063 20.2418 22.3736 20.25 22.0302V20.9945C20.25 20.2799 20.81 19.6999 21.5 19.6999C21.934 19.699 22.3522 19.5312 22.6734 19.229C22.9947 18.9267 23.196 18.5116 23.2384 18.0643C23.2807 17.617 23.1611 17.1693 22.9027 16.8082C22.6443 16.447 22.2676 16.1982 21.842 16.1101ZM21.5 28.6526C21.0359 28.6526 20.5908 28.4616 20.2626 28.1217C19.9344 27.7818 19.75 27.3208 19.75 26.8401C19.75 26.3594 19.9344 25.8983 20.2626 25.5584C20.5908 25.2185 21.0359 25.0276 21.5 25.0276C21.9641 25.0276 22.4092 25.2185 22.7374 25.5584C23.0656 25.8983 23.25 26.3594 23.25 26.8401C23.25 27.3208 23.0656 27.7818 22.7374 28.1217C22.4092 28.4616 21.9641 28.6526 21.5 28.6526Z" fill="black"/>
</svg>
