<svg width="42" height="42" viewBox="0 0 42 42" fill="none" xmlns="http://www.w3.org/2000/svg">
<rect x="1" y="1" width="40" height="40" rx="7" stroke="black" stroke-width="2"/>
<path d="M10.7441 19.1091C10.3611 19.1091 10.0157 19.0424 9.70778 18.9091C9.40233 18.7758 9.15021 18.5855 8.95142 18.3382C8.75506 18.0885 8.63021 17.7927 8.57688 17.4509L9.48597 17.3127C9.56354 17.623 9.72233 17.863 9.96233 18.0327C10.2048 18.2024 10.4835 18.2873 10.7987 18.2873C10.9854 18.2873 11.1611 18.2582 11.326 18.2C11.4908 18.1418 11.6241 18.057 11.726 17.9455C11.8302 17.8339 11.8823 17.697 11.8823 17.5345C11.8823 17.4618 11.8702 17.3952 11.846 17.3345C11.8217 17.2715 11.7854 17.2158 11.7369 17.1673C11.6908 17.1188 11.6302 17.0752 11.5551 17.0364C11.4823 16.9952 11.3975 16.96 11.3005 16.9309L9.94778 16.5309C9.83142 16.497 9.70536 16.4521 9.5696 16.3964C9.43627 16.3382 9.309 16.2594 9.18778 16.16C9.069 16.0582 8.97081 15.9297 8.89324 15.7745C8.81809 15.617 8.78051 15.423 8.78051 15.1927C8.78051 14.8558 8.86536 14.5733 9.03506 14.3455C9.20718 14.1152 9.43748 13.943 9.72597 13.8291C10.0169 13.7152 10.3393 13.6594 10.6932 13.6618C11.052 13.6642 11.372 13.7261 11.6532 13.8473C11.9345 13.9661 12.1696 14.1394 12.3587 14.3673C12.5478 14.5952 12.6811 14.8703 12.7587 15.1927L11.8169 15.3564C11.7781 15.1721 11.7029 15.0158 11.5914 14.8873C11.4823 14.7564 11.3478 14.657 11.1878 14.5891C11.0302 14.5212 10.8617 14.4848 10.6823 14.48C10.5078 14.4776 10.3454 14.5042 10.1951 14.56C10.0472 14.6133 9.92718 14.6909 9.83506 14.7927C9.74536 14.8945 9.70051 15.0133 9.70051 15.1491C9.70051 15.2776 9.7393 15.383 9.81688 15.4655C9.89445 15.5455 9.99021 15.6097 10.1041 15.6582C10.2205 15.7042 10.3381 15.743 10.4569 15.7745L11.3951 16.0364C11.5235 16.0703 11.6678 16.1164 11.8278 16.1745C11.9878 16.2327 12.1417 16.3139 12.2896 16.4182C12.4375 16.5224 12.5587 16.6594 12.6532 16.8291C12.7502 16.9988 12.7987 17.2145 12.7987 17.4764C12.7987 17.7479 12.7417 17.9867 12.6278 18.1927C12.5163 18.3964 12.3648 18.5661 12.1732 18.7018C11.9817 18.8376 11.7623 18.9394 11.5151 19.0073C11.2702 19.0752 11.0132 19.1091 10.7441 19.1091ZM14.684 19.1091C14.4003 19.1091 14.1603 19.0558 13.964 18.9491C13.7676 18.84 13.6185 18.6958 13.5167 18.5164C13.4173 18.337 13.3676 18.1394 13.3676 17.9236C13.3676 17.7345 13.3991 17.5648 13.4622 17.4145C13.5252 17.2618 13.6222 17.1309 13.7531 17.0218C13.884 16.9103 14.0537 16.8194 14.2622 16.7491C14.4197 16.6982 14.604 16.6521 14.8149 16.6109C15.0282 16.5697 15.2585 16.5321 15.5058 16.4982C15.7555 16.4618 16.0161 16.423 16.2876 16.3818L15.9749 16.56C15.9773 16.2885 15.9167 16.0885 15.7931 15.96C15.6694 15.8315 15.4609 15.7673 15.1676 15.7673C14.9906 15.7673 14.8197 15.8085 14.6549 15.8909C14.49 15.9733 14.3749 16.1152 14.3094 16.3164L13.5094 16.0655C13.6064 15.7333 13.7906 15.4667 14.0622 15.2655C14.3361 15.0642 14.7046 14.9636 15.1676 14.9636C15.5167 14.9636 15.8234 15.0206 16.0876 15.1345C16.3543 15.2485 16.5519 15.4352 16.6803 15.6945C16.7506 15.8327 16.7931 15.9745 16.8076 16.12C16.8222 16.263 16.8294 16.4194 16.8294 16.5891V19H16.0622V18.1491L16.1894 18.2873C16.0125 18.5709 15.8052 18.7794 15.5676 18.9127C15.3325 19.0436 15.0379 19.1091 14.684 19.1091ZM14.8585 18.4109C15.0573 18.4109 15.227 18.3758 15.3676 18.3055C15.5082 18.2352 15.6197 18.1491 15.7022 18.0473C15.787 17.9455 15.844 17.8497 15.8731 17.76C15.9191 17.6485 15.9446 17.5212 15.9494 17.3782C15.9567 17.2327 15.9603 17.1152 15.9603 17.0255L16.2294 17.1055C15.9652 17.1467 15.7385 17.183 15.5494 17.2145C15.3603 17.2461 15.1979 17.2764 15.0622 17.3055C14.9264 17.3321 14.8064 17.3624 14.7022 17.3964C14.6003 17.4327 14.5143 17.4752 14.444 17.5236C14.3737 17.5721 14.3191 17.6279 14.2803 17.6909C14.244 17.7539 14.2258 17.8279 14.2258 17.9127C14.2258 18.0097 14.25 18.0958 14.2985 18.1709C14.347 18.2436 14.4173 18.3018 14.5094 18.3455C14.604 18.3891 14.7203 18.4109 14.8585 18.4109ZM22.4925 19V16.6145C22.4925 16.3455 22.4258 16.1358 22.2925 15.9855C22.1592 15.8327 21.9786 15.7564 21.7507 15.7564C21.6101 15.7564 21.484 15.7891 21.3725 15.8545C21.261 15.9176 21.1725 16.0121 21.107 16.1382C21.0416 16.2618 21.0089 16.4097 21.0089 16.5818L20.6198 16.3527C20.6173 16.0812 20.678 15.8424 20.8016 15.6364C20.9277 15.4279 21.0973 15.2655 21.3107 15.1491C21.524 15.0327 21.7616 14.9745 22.0234 14.9745C22.4573 14.9745 22.7895 15.1055 23.0198 15.3673C23.2525 15.6267 23.3689 15.9685 23.3689 16.3927V19H22.4925ZM17.7689 19V15.0727H18.5434V16.2909H18.6525V19H17.7689ZM20.1361 19V16.6255C20.1361 16.3515 20.0695 16.1382 19.9361 15.9855C19.8028 15.8327 19.621 15.7564 19.3907 15.7564C19.1677 15.7564 18.9883 15.8327 18.8525 15.9855C18.7192 16.1382 18.6525 16.337 18.6525 16.5818L18.2598 16.32C18.2598 16.0655 18.3228 15.8364 18.4489 15.6327C18.5749 15.4291 18.7446 15.2691 18.958 15.1527C19.1737 15.0339 19.4149 14.9745 19.6816 14.9745C19.9749 14.9745 20.2198 15.0376 20.4161 15.1636C20.6149 15.2873 20.7628 15.457 20.8598 15.6727C20.9592 15.8861 21.0089 16.1273 21.0089 16.3964V19H20.1361ZM26.2046 19.1091C25.8216 19.1091 25.5004 19.0182 25.241 18.8364C24.9816 18.6545 24.7864 18.4073 24.6555 18.0945C24.5246 17.7794 24.4591 17.4267 24.4591 17.0364C24.4591 16.6412 24.5246 16.2873 24.6555 15.9745C24.7864 15.6618 24.9779 15.4158 25.2301 15.2364C25.4846 15.0545 25.7985 14.9636 26.1719 14.9636C26.5428 14.9636 26.864 15.0545 27.1355 15.2364C27.4095 15.4158 27.6216 15.6618 27.7719 15.9745C27.9222 16.2848 27.9973 16.6388 27.9973 17.0364C27.9973 17.4291 27.9234 17.7818 27.7755 18.0945C27.6276 18.4073 27.4191 18.6545 27.1501 18.8364C26.881 19.0182 26.5658 19.1091 26.2046 19.1091ZM24.3101 20.7455V15.0727H25.0846V17.8291H25.1937V20.7455H24.3101ZM26.0701 18.3236C26.2979 18.3236 26.4858 18.2667 26.6337 18.1527C26.7816 18.0388 26.8907 17.8848 26.961 17.6909C27.0337 17.4945 27.0701 17.2764 27.0701 17.0364C27.0701 16.7988 27.0337 16.583 26.961 16.3891C26.8882 16.1927 26.7755 16.0376 26.6228 15.9236C26.4701 15.8073 26.2761 15.7491 26.041 15.7491C25.8179 15.7491 25.6361 15.8036 25.4955 15.9127C25.3549 16.0194 25.2507 16.1697 25.1828 16.3636C25.1173 16.5552 25.0846 16.7794 25.0846 17.0364C25.0846 17.2909 25.1173 17.5152 25.1828 17.7091C25.2507 17.903 25.3561 18.0545 25.4991 18.1636C25.6446 18.2703 25.8349 18.3236 26.0701 18.3236ZM28.8716 19V13.6545H29.748V19H28.8716ZM32.6227 19.1091C32.2251 19.1091 31.876 19.023 31.5754 18.8509C31.2748 18.6788 31.0396 18.44 30.8699 18.1345C30.7027 17.8291 30.619 17.4776 30.619 17.08C30.619 16.6509 30.7015 16.2788 30.8663 15.9636C31.0312 15.6461 31.2602 15.4 31.5536 15.2255C31.8469 15.0509 32.1863 14.9636 32.5718 14.9636C32.979 14.9636 33.3245 15.0594 33.6081 15.2509C33.8942 15.44 34.1063 15.7079 34.2445 16.0545C34.3827 16.4012 34.4348 16.8097 34.4009 17.28H33.5318V16.96C33.5293 16.5333 33.4542 16.2218 33.3063 16.0255C33.1584 15.8291 32.9257 15.7309 32.6081 15.7309C32.2493 15.7309 31.9827 15.8424 31.8081 16.0655C31.6336 16.2861 31.5463 16.6097 31.5463 17.0364C31.5463 17.4339 31.6336 17.7418 31.8081 17.96C31.9827 18.1782 32.2372 18.2873 32.5718 18.2873C32.7875 18.2873 32.973 18.24 33.1281 18.1455C33.2857 18.0485 33.4069 17.9091 33.4918 17.7273L34.3572 17.9891C34.2069 18.343 33.9742 18.6182 33.659 18.8145C33.3463 19.0109 33.0009 19.1091 32.6227 19.1091ZM31.2699 17.28V16.6182H33.9718V17.28H31.2699ZM12.1031 29V23.7636H12.9795V28.1782H15.2922V29H12.1031ZM17.9807 29.1091C17.4571 29.1091 17.0086 28.9952 16.6353 28.7673C16.262 28.537 15.9747 28.217 15.7735 27.8073C15.5747 27.3976 15.4753 26.9224 15.4753 26.3818C15.4753 25.8412 15.5747 25.3661 15.7735 24.9564C15.9747 24.5467 16.262 24.2279 16.6353 24C17.0086 23.7697 17.4571 23.6545 17.9807 23.6545C18.5044 23.6545 18.9529 23.7697 19.3262 24C19.702 24.2279 19.9892 24.5467 20.188 24.9564C20.3892 25.3661 20.4898 25.8412 20.4898 26.3818C20.4898 26.9224 20.3892 27.3976 20.188 27.8073C19.9892 28.217 19.702 28.537 19.3262 28.7673C18.9529 28.9952 18.5044 29.1091 17.9807 29.1091ZM17.9807 28.2836C18.3323 28.2861 18.6244 28.2085 18.8571 28.0509C19.0923 27.8933 19.268 27.6715 19.3844 27.3855C19.5032 27.0994 19.5626 26.7648 19.5626 26.3818C19.5626 25.9988 19.5032 25.6667 19.3844 25.3855C19.268 25.1018 19.0923 24.8812 18.8571 24.7236C18.6244 24.5661 18.3323 24.4848 17.9807 24.48C17.6292 24.4776 17.3371 24.5552 17.1044 24.7127C16.8716 24.8703 16.6959 25.0921 16.5771 25.3782C16.4607 25.6642 16.4026 25.9988 16.4026 26.3818C16.4026 26.7648 16.4607 27.0982 16.5771 27.3818C16.6935 27.663 16.868 27.8824 17.1007 28.04C17.3359 28.1976 17.6292 28.2788 17.9807 28.2836ZM23.3736 29.1091C23.0342 29.1091 22.7155 29.0497 22.4173 28.9309C22.1215 28.8097 21.8609 28.6327 21.6355 28.4C21.4124 28.1673 21.2379 27.8824 21.1118 27.5455C20.9858 27.2061 20.9227 26.8182 20.9227 26.3818C20.9227 25.8097 21.0294 25.3212 21.2427 24.9164C21.4561 24.5091 21.7482 24.1976 22.1191 23.9818C22.49 23.7636 22.9082 23.6545 23.3736 23.6545C24.0185 23.6545 24.5288 23.8048 24.9045 24.1055C25.2827 24.4036 25.5385 24.823 25.6718 25.3636L24.7773 25.5055C24.6779 25.1952 24.5155 24.9479 24.29 24.7636C24.0645 24.577 23.7773 24.4836 23.4282 24.4836C23.0767 24.4788 22.7845 24.5552 22.5518 24.7127C22.3191 24.8703 22.1433 25.0921 22.0245 25.3782C21.9082 25.6642 21.85 25.9988 21.85 26.3818C21.85 26.7648 21.9082 27.0982 22.0245 27.3818C22.1409 27.663 22.3155 27.8824 22.5482 28.04C22.7833 28.1976 23.0767 28.2788 23.4282 28.2836C23.6924 28.2861 23.9239 28.2388 24.1227 28.1418C24.3215 28.0424 24.4839 27.8933 24.61 27.6945C24.7361 27.4933 24.8209 27.2424 24.8645 26.9418H23.9409V26.2545H25.7955C25.8003 26.2933 25.8039 26.3503 25.8064 26.4255C25.8088 26.5006 25.81 26.5455 25.81 26.56C25.81 27.0545 25.7118 27.4945 25.5155 27.88C25.3215 28.263 25.0427 28.5636 24.6791 28.7818C24.3155 29 23.8803 29.1091 23.3736 29.1091ZM28.7549 29.1091C28.2313 29.1091 27.7828 28.9952 27.4094 28.7673C27.0361 28.537 26.7488 28.217 26.5476 27.8073C26.3488 27.3976 26.2494 26.9224 26.2494 26.3818C26.2494 25.8412 26.3488 25.3661 26.5476 24.9564C26.7488 24.5467 27.0361 24.2279 27.4094 24C27.7828 23.7697 28.2313 23.6545 28.7549 23.6545C29.2785 23.6545 29.727 23.7697 30.1003 24C30.4761 24.2279 30.7634 24.5467 30.9622 24.9564C31.1634 25.3661 31.264 25.8412 31.264 26.3818C31.264 26.9224 31.1634 27.3976 30.9622 27.8073C30.7634 28.217 30.4761 28.537 30.1003 28.7673C29.727 28.9952 29.2785 29.1091 28.7549 29.1091ZM28.7549 28.2836C29.1064 28.2861 29.3985 28.2085 29.6313 28.0509C29.8664 27.8933 30.0422 27.6715 30.1585 27.3855C30.2773 27.0994 30.3367 26.7648 30.3367 26.3818C30.3367 25.9988 30.2773 25.6667 30.1585 25.3855C30.0422 25.1018 29.8664 24.8812 29.6313 24.7236C29.3985 24.5661 29.1064 24.4848 28.7549 24.48C28.4034 24.4776 28.1113 24.5552 27.8785 24.7127C27.6458 24.8703 27.47 25.0921 27.3513 25.3782C27.2349 25.6642 27.1767 25.9988 27.1767 26.3818C27.1767 26.7648 27.2349 27.0982 27.3513 27.3818C27.4676 27.663 27.6422 27.8824 27.8749 28.04C28.11 28.1976 28.4034 28.2788 28.7549 28.2836Z" fill="black"/>
</svg>
