<svg width="36" height="36" viewBox="0 0 36 36" fill="none" xmlns="http://www.w3.org/2000/svg">
<path d="M14.9301 29.163L14.4836 25.5909C14.2417 25.4979 14.014 25.3862 13.8004 25.256C13.5868 25.1258 13.3773 24.9862 13.1719 24.8374L9.85102 26.2327L6.78125 20.9304L9.65567 18.7537C9.63706 18.6234 9.62776 18.4981 9.62776 18.3775V17.624C9.62776 17.5027 9.63706 17.3769 9.65567 17.2467L6.78125 15.07L9.85102 9.76763L13.1719 11.163C13.3766 11.0141 13.5906 10.8746 13.8138 10.7444C14.0371 10.6141 14.2603 10.5025 14.4836 10.4095L14.9301 6.8374H21.0696L21.5161 10.4095C21.758 10.5025 21.9861 10.6141 22.2004 10.7444C22.4147 10.8746 22.6239 11.0141 22.8278 11.163L26.1487 9.76763L29.2185 15.07L26.344 17.2467C26.3626 17.3769 26.3719 17.5027 26.3719 17.624V18.3764C26.3719 18.4977 26.3533 18.6234 26.3161 18.7537L29.1905 20.9304L26.1208 26.2327L22.8278 24.8374C22.6231 24.9862 22.4092 25.1258 22.1859 25.256C21.9626 25.3862 21.7394 25.4979 21.5161 25.5909L21.0696 29.163H14.9301ZM18.0557 21.9072C19.1347 21.9072 20.0557 21.5258 20.8185 20.763C21.5812 20.0002 21.9626 19.0793 21.9626 18.0002C21.9626 16.9211 21.5812 16.0002 20.8185 15.2374C20.0557 14.4746 19.1347 14.0932 18.0557 14.0932C16.958 14.0932 16.0322 14.4746 15.2784 15.2374C14.5245 16.0002 14.1479 16.9211 14.1487 18.0002C14.1494 19.0793 14.5264 20.0002 15.2795 20.763C16.0326 21.5258 16.958 21.9072 18.0557 21.9072Z" fill="black"/>
</svg>
