<svg width="16" height="16" viewBox="0 0 16 16" fill="none" xmlns="http://www.w3.org/2000/svg">
<path d="M3.41904 7.32568H13.1865C13.316 7.32568 13.4402 7.37714 13.5318 7.46872C13.6234 7.56031 13.6749 7.68453 13.6749 7.81406C13.6749 7.94358 13.6234 8.0678 13.5318 8.15939C13.4402 8.25097 13.316 8.30243 13.1865 8.30243H3.41904C3.28951 8.30243 3.16529 8.25097 3.07371 8.15939C2.98212 8.0678 2.93066 7.94358 2.93066 7.81406C2.93066 7.68453 2.98212 7.56031 3.07371 7.46872C3.16529 7.37714 3.28951 7.32568 3.41904 7.32568Z" fill="black"/>
<path d="M4.11047 7.81476L8.16103 11.8643C8.25273 11.956 8.30425 12.0804 8.30425 12.2101C8.30425 12.3398 8.25273 12.4642 8.16103 12.5559C8.06932 12.6476 7.94495 12.6991 7.81526 12.6991C7.68557 12.6991 7.56119 12.6476 7.46949 12.5559L3.07414 8.16052C3.02866 8.11516 2.99258 8.06127 2.96796 8.00193C2.94334 7.9426 2.93066 7.879 2.93066 7.81476C2.93066 7.75052 2.94334 7.68691 2.96796 7.62758C2.99258 7.56825 3.02866 7.51436 3.07414 7.46899L7.46949 3.07364C7.56119 2.98194 7.68557 2.93042 7.81526 2.93042C7.94495 2.93042 8.06932 2.98194 8.16103 3.07364C8.25273 3.16534 8.30425 3.28972 8.30425 3.41941C8.30425 3.5491 8.25273 3.67347 8.16103 3.76518L4.11047 7.81476Z" fill="black"/>
</svg>
