<svg width="76" height="72" viewBox="0 0 76 72" fill="none" xmlns="http://www.w3.org/2000/svg">
<path d="M37.9935 71.3782C42.0436 71.3782 45.3268 68.095 45.3268 64.0449C45.3268 59.9948 42.0436 56.7115 37.9935 56.7115C33.9434 56.7115 30.6602 59.9948 30.6602 64.0449C30.6602 68.095 33.9434 71.3782 37.9935 71.3782Z" fill="black"/>
<path d="M65.3232 35.1274L65.592 34.7119C65.8574 34.3005 66.0384 33.8405 66.1243 33.3585C66.2102 32.8766 66.1993 32.3824 66.0924 31.9047C65.9855 31.4269 65.7846 30.9753 65.5015 30.5759C65.2183 30.1766 64.8586 29.8375 64.4432 29.5785C56.4952 24.6686 47.3365 22.07 37.9943 22.0741C36.6254 22.0741 35.2809 22.0741 33.9609 22.2452L41.8076 30.0919C48.3949 30.6731 54.7558 32.7823 60.3854 36.2519C61.1935 36.7416 62.1603 36.8981 63.0817 36.6882C64.003 36.4784 64.8068 35.9188 65.3232 35.1274Z" fill="black"/>
<path d="M74.0725 14.7642C65.9258 9.68315 56.798 6.37952 47.2865 5.06947C37.7749 3.75942 28.0939 4.47248 18.877 7.16198L25.3058 13.5909C40.6652 10.2935 56.705 13.1174 70.0147 21.462C70.8185 21.9368 71.7739 22.0848 72.6836 21.8756C73.5934 21.6664 74.3881 21.1158 74.9036 20.3375L75.1725 19.922C75.444 19.5127 75.631 19.0533 75.7227 18.5708C75.8144 18.0883 75.8088 17.5923 75.7064 17.1119C75.6039 16.6316 75.4067 16.1765 75.1261 15.7734C74.8455 15.3702 74.4873 15.0271 74.0725 14.7642Z" fill="black"/>
<path d="M1.32715 3.44667L8.90493 11.0244C6.4493 12.1563 4.06555 13.438 1.76715 14.8622C1.34637 15.1192 0.981348 15.4579 0.693628 15.8583C0.405909 16.2587 0.201325 16.7127 0.091955 17.1935C-0.017415 17.6743 -0.0293542 18.1721 0.0568418 18.6575C0.143038 19.143 0.325622 19.6063 0.593816 20.02L0.862705 20.4356C1.37826 21.2138 2.17294 21.7644 3.08271 21.9736C3.99247 22.1829 4.94784 22.0348 5.75159 21.56C8.60697 19.764 11.6078 18.2104 14.7227 16.9156L22.3983 24.5911C18.5138 25.8392 14.7954 27.5547 11.3249 29.7C10.9115 29.961 10.554 30.3014 10.2732 30.7017C9.99248 31.1019 9.79403 31.554 9.68942 32.0316C9.58481 32.5091 9.57611 33.0028 9.66385 33.4837C9.75158 33.9647 9.93399 34.4234 10.2005 34.8333L10.4694 35.2489C10.9849 36.0271 11.7796 36.5777 12.6894 36.7869C13.5991 36.9962 14.5545 36.8481 15.3583 36.3733C19.5058 33.8101 24.0611 31.9748 28.8272 30.9467L37.6272 39.7467C31.7723 39.8075 26.0409 41.4367 21.0294 44.4644C20.6168 44.7231 20.2598 45.0613 19.9793 45.4594C19.6988 45.8575 19.5005 46.3075 19.3958 46.7831C19.2911 47.2587 19.2822 47.7504 19.3696 48.2294C19.4571 48.7085 19.639 49.1654 19.9049 49.5733L20.1494 49.9644C20.6873 50.7594 21.5119 51.3154 22.4506 51.5159C23.3893 51.7164 24.3692 51.5459 25.1849 51.04C28.4748 49.0857 32.1703 47.9149 35.9853 47.6182C39.8003 47.3215 43.6325 47.9068 47.1849 49.3289L64.8827 67.0022L68.3294 63.5556L4.77382 0L1.32715 3.44667Z" fill="black"/>
</svg>
