<svg width="32" height="33" viewBox="0 0 32 33" fill="none" xmlns="http://www.w3.org/2000/svg">
<path d="M31.923 16.5524C31.923 25.3139 24.8204 32.4166 16.0588 32.4166C7.29726 32.4166 0.194611 25.3139 0.194611 16.5524C0.194611 7.79082 7.29726 0.688171 16.0588 0.688171C24.8204 0.688171 31.923 7.79082 31.923 16.5524ZM1.78103 16.5524C1.78103 24.4378 8.17342 30.8302 16.0588 30.8302C23.9442 30.8302 30.3366 24.4378 30.3366 16.5524C30.3366 8.66698 23.9442 2.27459 16.0588 2.27459C8.17342 2.27459 1.78103 8.66698 1.78103 16.5524Z" fill="#A4A4A4"/>
<g opacity="0.78">
<path d="M21.1874 20.1918V19.0446H22.5613V14.923H21.1874V13.7758C21.1874 13.5335 21.0911 13.3011 20.9198 13.1298C20.7485 12.9584 20.5161 12.8622 20.2738 12.8622H9.73617C9.2347 12.8622 8.82254 13.2743 8.82254 13.7758V20.1918C8.82254 20.4341 8.9188 20.6665 9.09013 20.8378C9.26147 21.0092 9.49386 21.1054 9.73617 21.1054H20.2738C20.7752 21.1054 21.1874 20.6933 21.1874 20.1918Z" fill="black"/>
</g>
</svg>
