<svg width="32" height="33" viewBox="0 0 32 33" fill="none" xmlns="http://www.w3.org/2000/svg">
<path d="M31.923 16.574C31.923 25.3356 24.8204 32.4382 16.0588 32.4382C7.29723 32.4382 0.19458 25.3356 0.19458 16.574C0.19458 7.81243 7.29723 0.709778 16.0588 0.709778C24.8204 0.709778 31.923 7.81243 31.923 16.574ZM1.781 16.574C1.781 24.4594 8.17339 30.8518 16.0588 30.8518C23.9442 30.8518 30.3366 24.4594 30.3366 16.574C30.3366 8.68859 23.9442 2.2962 16.0588 2.2962C8.17339 2.2962 1.781 8.68859 1.781 16.574Z" fill="#A4A4A4"/>
<g opacity="0.67">
<path d="M16.2029 21.2919C16.3348 21.2809 16.4476 21.2286 16.5412 21.135C16.6349 21.0413 16.6815 20.9288 16.681 20.7973C16.681 20.6435 16.6316 20.5199 16.5327 20.4267C16.4337 20.3335 16.3074 20.2922 16.1535 20.3027C15.7028 20.3357 15.2247 20.2122 14.7192 19.9321C14.2136 19.6521 13.8948 19.1436 13.7629 18.4068C13.741 18.2859 13.6834 18.187 13.5902 18.11C13.497 18.0331 13.3897 17.9946 13.2683 17.9946C13.1145 17.9946 12.9881 18.0524 12.8892 18.1681C12.7902 18.2837 12.7573 18.4182 12.7902 18.5717C12.9771 19.5718 13.4167 20.2863 14.1092 20.7149C14.8016 21.1435 15.4995 21.3359 16.2029 21.2919ZM16.0216 23.2703C14.5158 23.2703 13.2602 22.7537 12.2548 21.7206C11.2493 20.6874 10.7464 19.4015 10.7459 17.8627C10.7459 16.7636 11.1829 15.5685 12.0569 14.2773C12.9309 12.986 14.2525 11.5873 16.0216 10.0811C17.7911 11.5869 19.1129 12.9856 19.9869 14.2773C20.8609 15.5689 21.2977 16.7641 21.2973 17.8627C21.2973 19.4015 20.7945 20.6874 19.7891 21.7206C18.7836 22.7537 17.5278 23.2703 16.0216 23.2703Z" fill="black"/>
</g>
</svg>
