<svg width="30" height="30" viewBox="0 0 30 30" fill="none" xmlns="http://www.w3.org/2000/svg">
<circle cx="14.9333" cy="14.9333" r="14.4" fill="#2A4633" stroke="black" stroke-width="1.06667"/>
<mask id="path-2-outside-1_2445_1216" maskUnits="userSpaceOnUse" x="3.33594" y="7.6001" width="23" height="16" fill="black">
<rect fill="white" x="3.33594" y="7.6001" width="23" height="16"/>
<path d="M24.5361 18.7427H21.793V22.3999H19.0498V18.7427H10.8174V22.3999H8.07422V18.7427H5.33594V9.6001H24.5361V18.7427Z"/>
</mask>
<path d="M24.5361 18.7427H21.793V22.3999H19.0498V18.7427H10.8174V22.3999H8.07422V18.7427H5.33594V9.6001H24.5361V18.7427Z" fill="#D9D9D9"/>
<path d="M24.5361 18.7427V19.8093H25.6028V18.7427H24.5361ZM21.793 18.7427V17.676H20.7263V18.7427H21.793ZM21.793 22.3999V23.4666H22.8596V22.3999H21.793ZM19.0498 22.3999H17.9831V23.4666H19.0498V22.3999ZM19.0498 18.7427H20.1165V17.676H19.0498V18.7427ZM10.8174 18.7427V17.676H9.75072V18.7427H10.8174ZM10.8174 22.3999V23.4666H11.884V22.3999H10.8174ZM8.07422 22.3999H7.00755V23.4666H8.07422V22.3999ZM8.07422 18.7427H9.14089V17.676H8.07422V18.7427ZM5.33594 18.7427H4.26927V19.8093H5.33594V18.7427ZM5.33594 9.6001V8.53343H4.26927V9.6001H5.33594ZM24.5361 9.6001H25.6028V8.53343H24.5361V9.6001ZM24.5361 18.7427V17.676H21.793V18.7427V19.8093H24.5361V18.7427ZM21.793 18.7427H20.7263V22.3999H21.793H22.8596V18.7427H21.793ZM21.793 22.3999V21.3332H19.0498V22.3999V23.4666H21.793V22.3999ZM19.0498 22.3999H20.1165V18.7427H19.0498H17.9831V22.3999H19.0498ZM19.0498 18.7427V17.676H10.8174V18.7427V19.8093H19.0498V18.7427ZM10.8174 18.7427H9.75072V22.3999H10.8174H11.884V18.7427H10.8174ZM10.8174 22.3999V21.3332H8.07422V22.3999V23.4666H10.8174V22.3999ZM8.07422 22.3999H9.14089V18.7427H8.07422H7.00755V22.3999H8.07422ZM8.07422 18.7427V17.676H5.33594V18.7427V19.8093H8.07422V18.7427ZM5.33594 18.7427H6.4026V9.6001H5.33594H4.26927V18.7427H5.33594ZM5.33594 9.6001V10.6668H24.5361V9.6001V8.53343H5.33594V9.6001ZM24.5361 9.6001H23.4695V18.7427H24.5361H25.6028V9.6001H24.5361Z" fill="black" mask="url(#path-2-outside-1_2445_1216)"/>
</svg>
