<svg width="28" height="28" viewBox="0 0 28 28" fill="none" xmlns="http://www.w3.org/2000/svg">
<path d="M21.6111 21.6079H5.68869V9.09742H21.6111M18.1991 1.13623V3.41086H9.10063V1.13623H6.826V3.41086H5.68869C4.42627 3.41086 3.41406 4.42307 3.41406 5.68548V21.6079C3.41406 22.2111 3.65371 22.7897 4.08029 23.2163C4.50686 23.6429 5.08542 23.8825 5.68869 23.8825H21.6111C22.2143 23.8825 22.7929 23.6429 23.2195 23.2163C23.6461 22.7897 23.8857 22.2111 23.8857 21.6079V5.68548C23.8857 5.08222 23.6461 4.50366 23.2195 4.07708C22.7929 3.6505 22.2143 3.41086 21.6111 3.41086H20.4738V1.13623M19.3364 13.6467H13.6499V19.3332H19.3364V13.6467Z" fill="black"/>
</svg>
