<svg width="15" height="15" viewBox="0 0 15 15" fill="none" xmlns="http://www.w3.org/2000/svg">
<g clip-path="url(#clip0_2200_2696)">
<path fill-rule="evenodd" clip-rule="evenodd" d="M7.64729 9.43391C7.5346 9.54656 7.38179 9.60985 7.22245 9.60985C7.06311 9.60985 6.91029 9.54656 6.79761 9.43391L3.39829 6.03459C3.3409 5.97916 3.29512 5.91285 3.26363 5.83954C3.23214 5.76623 3.21556 5.68738 3.21487 5.60759C3.21417 5.5278 3.22938 5.44868 3.25959 5.37483C3.28981 5.30098 3.33442 5.23389 3.39084 5.17747C3.44727 5.12105 3.51436 5.07643 3.58821 5.04621C3.66206 5.016 3.74118 5.00079 3.82097 5.00149C3.90076 5.00218 3.97961 5.01876 4.05292 5.05025C4.12623 5.08174 4.19254 5.12752 4.24797 5.18491L7.22245 8.15939L10.1969 5.18491C10.3103 5.07545 10.462 5.01489 10.6196 5.01626C10.7772 5.01762 10.9279 5.08082 11.0393 5.19223C11.1507 5.30365 11.2139 5.45436 11.2153 5.61192C11.2166 5.76947 11.1561 5.92126 11.0466 6.03459L7.64729 9.43391Z" fill="black"/>
</g>
<defs>
<clipPath id="clip0_2200_2696">
<rect width="14.4217" height="14.4217" fill="white"/>
</clipPath>
</defs>
</svg>
