<svg width="1440" height="1029" viewBox="0 0 1440 1029" fill="none" xmlns="http://www.w3.org/2000/svg">
<rect width="1440" height="555" fill="#CCEDF7"/>
<path d="M276.333 350.278C184.333 283.878 87.666 482.611 50.8327 590.278C1.9114 704.778 436.833 644.778 472.333 602.778C507.833 560.778 391.333 433.278 276.333 350.278Z" fill="#305E37" stroke="black"/>
<path d="M152.333 373.278C60.3327 306.878 -36.334 505.611 -73.1673 613.278C-122.089 727.778 312.833 667.778 348.333 625.778C383.833 583.778 267.333 456.278 152.333 373.278Z" fill="#459451" stroke="black"/>
<path d="M899.292 311.084C802.793 219.205 658.739 435.087 598.774 554.513C523.659 679.969 1039.25 679.257 1087.23 636.027C1135.21 592.797 1019.92 425.932 899.292 311.084Z" fill="#305E37" stroke="black"/>
<path d="M1411.5 293.887C1315 202.009 1170.94 417.891 1110.98 537.316C1035.86 662.772 1551.46 662.06 1599.44 618.831C1647.42 575.601 1532.12 408.736 1411.5 293.887Z" fill="#305E37" stroke="black"/>
<path d="M1157.5 277.887C1061 186.009 916.944 401.891 856.979 521.316C781.864 646.772 1297.46 646.06 1345.44 602.831C1393.42 559.601 1278.12 392.736 1157.5 277.887Z" fill="#459451" stroke="black"/>
<path d="M637.37 256.662C522.692 147.475 351.5 404.026 280.238 545.95C190.972 695.041 803.699 694.195 860.718 642.821C917.737 591.448 780.718 393.147 637.37 256.662Z" fill="#459451" stroke="black"/>
<path d="M681.763 560.902C443.846 524.141 129.955 580.259 0 610.893V1029H1440V520C1286.39 548.951 919.681 597.663 681.763 560.902Z" fill="url(#paint0_linear_1014_1479)"/>
<path d="M932 991.165C845.345 986.716 799.699 1012.51 713 1016.01C636.747 1019.1 621 976.883 518 993.699C415 1010.51 416.93 974.179 353 975.014C296.008 975.759 266.527 1024.38 164.264 993.699C62 963.014 -5 1028.67 -5 1028.67H718L1440 1028.67C1440 1028.67 1335.89 991.709 1270 991.165C1201.64 990.601 1173.37 1020.36 1105 1020.01C1038.16 1019.68 998.754 994.593 932 991.165Z" fill="#FFF9E8"/>
<defs>
<linearGradient id="paint0_linear_1014_1479" x1="720" y1="520" x2="720" y2="1029" gradientUnits="userSpaceOnUse">
<stop stop-color="#9BFF87"/>
<stop offset="1" stop-color="#9BFF87"/>
</linearGradient>
</defs>
</svg>
