<svg width="13" height="13" viewBox="0 0 13 13" fill="none" xmlns="http://www.w3.org/2000/svg">
<path d="M6.47308 9.74992C6.66266 9.74992 6.823 9.68438 6.95408 9.5533C7.08516 9.42221 7.15052 9.26206 7.15016 9.07284C7.1498 8.88362 7.08444 8.72328 6.95408 8.59184C6.82372 8.46039 6.66339 8.39503 6.47308 8.39575C6.28277 8.39648 6.12262 8.46202 5.99262 8.59238C5.86262 8.72274 5.79708 8.88289 5.796 9.07284C5.79491 9.26278 5.86045 9.42312 5.99262 9.55384C6.12479 9.68456 6.28494 9.74992 6.47308 9.74992ZM5.98558 7.6645H6.98766C6.98766 7.36659 7.02161 7.13187 7.0895 6.96034C7.15739 6.78881 7.34914 6.55409 7.66475 6.25617C7.89947 6.02145 8.08454 5.79792 8.21996 5.58559C8.35537 5.37325 8.42308 5.11831 8.42308 4.82075C8.42308 4.3152 8.23801 3.927 7.86787 3.65617C7.49773 3.38534 7.05989 3.24992 6.55433 3.24992C6.03975 3.24992 5.6223 3.38534 5.302 3.65617C4.98169 3.927 4.75816 4.252 4.63141 4.63117L5.52516 4.98325C5.5703 4.82075 5.67195 4.64471 5.83012 4.45513C5.98829 4.26555 6.22969 4.17075 6.55433 4.17075C6.84322 4.17075 7.05989 4.24984 7.20433 4.408C7.34877 4.56617 7.421 4.73987 7.421 4.92909C7.421 5.10964 7.36683 5.279 7.2585 5.43717C7.15016 5.59534 7.01475 5.74195 6.85225 5.877C6.45502 6.22909 6.21127 6.49541 6.121 6.67596C6.03072 6.85652 5.98558 7.18603 5.98558 7.6645ZM6.50016 11.9166C5.75086 11.9166 5.04669 11.7745 4.38766 11.4903C3.72864 11.2061 3.15537 10.8201 2.66787 10.3322C2.18037 9.84435 1.79452 9.27109 1.51033 8.61242C1.22614 7.95375 1.08386 7.24959 1.0835 6.49992C1.08314 5.75025 1.22541 5.04609 1.51033 4.38742C1.79525 3.72875 2.18109 3.15549 2.66787 2.66763C3.15465 2.17977 3.72791 1.79392 4.38766 1.51009C5.04741 1.22625 5.75158 1.08398 6.50016 1.08325C7.24875 1.08253 7.95291 1.22481 8.61266 1.51009C9.27241 1.79537 9.84568 2.18121 10.3325 2.66763C10.8192 3.15405 11.2053 3.72731 11.4905 4.38742C11.7758 5.04753 11.9179 5.7517 11.9168 6.49992C11.9157 7.24814 11.7735 7.95231 11.49 8.61242C11.2065 9.27253 10.8207 9.8458 10.3325 10.3322C9.84423 10.8186 9.27097 11.2047 8.61266 11.4903C7.95436 11.7759 7.25019 11.918 6.50016 11.9166ZM6.50016 10.8333C7.70989 10.8333 8.73454 10.4135 9.57412 9.57388C10.4137 8.7343 10.8335 7.70964 10.8335 6.49992C10.8335 5.2902 10.4137 4.26555 9.57412 3.42596C8.73454 2.58638 7.70989 2.16659 6.50016 2.16659C5.29044 2.16659 4.26579 2.58638 3.42621 3.42596C2.58662 4.26555 2.16683 5.2902 2.16683 6.49992C2.16683 7.70964 2.58662 8.7343 3.42621 9.57388C4.26579 10.4135 5.29044 10.8333 6.50016 10.8333Z" fill="black"/>
</svg>
