<svg width="24" height="24" viewBox="0 0 24 24" fill="none" xmlns="http://www.w3.org/2000/svg">
<path d="M12 15.9524C12.4641 15.9524 12.9092 15.7818 13.2374 15.4782C13.5656 15.1745 13.75 14.7627 13.75 14.3333C13.75 13.9039 13.5656 13.4921 13.2374 13.1885C12.9092 12.8849 12.4641 12.7143 12 12.7143C11.5359 12.7143 11.0908 12.8849 10.7626 13.1885C10.4344 13.4921 10.25 13.9039 10.25 14.3333C10.25 14.7627 10.4344 15.1745 10.7626 15.4782C11.0908 15.7818 11.5359 15.9524 12 15.9524ZM17.25 8.66667C17.7141 8.66667 18.1592 8.83724 18.4874 9.14088C18.8156 9.44451 19 9.85632 19 10.2857V18.381C19 18.8104 18.8156 19.2222 18.4874 19.5258C18.1592 19.8294 17.7141 20 17.25 20H6.75C6.28587 20 5.84075 19.8294 5.51256 19.5258C5.18437 19.2222 5 18.8104 5 18.381V10.2857C5 9.85632 5.18437 9.44451 5.51256 9.14088C5.84075 8.83724 6.28587 8.66667 6.75 8.66667H7.625V7.04762C7.625 5.97412 8.08594 4.9446 8.90641 4.18552C9.72688 3.42644 10.8397 3 12 3C12.5745 3 13.1434 3.10469 13.6742 3.30811C14.205 3.51152 14.6873 3.80966 15.0936 4.18552C15.4998 4.56138 15.8221 5.00758 16.042 5.49866C16.2618 5.98974 16.375 6.51608 16.375 7.04762V8.66667H17.25ZM12 4.61905C11.3038 4.61905 10.6361 4.87491 10.1438 5.33036C9.65156 5.78581 9.375 6.40352 9.375 7.04762V8.66667H14.625V7.04762C14.625 6.40352 14.3484 5.78581 13.8562 5.33036C13.3639 4.87491 12.6962 4.61905 12 4.61905Z" fill="black"/>
</svg>
