<svg width="13" height="13" viewBox="0 0 13 13" fill="none" xmlns="http://www.w3.org/2000/svg">
<path d="M5.54829 8.83675L3.25 6.53792L4.01592 5.772L5.54829 7.30383L8.61196 4.23962L9.37842 5.00608L5.54829 8.83675Z" fill="black"/>
<path fill-rule="evenodd" clip-rule="evenodd" d="M0.541504 6.49996C0.541504 3.20933 3.20921 0.541626 6.49984 0.541626C9.79046 0.541626 12.4582 3.20933 12.4582 6.49996C12.4582 9.79058 9.79046 12.4583 6.49984 12.4583C3.20921 12.4583 0.541504 9.79058 0.541504 6.49996ZM6.49984 11.375C5.85964 11.375 5.22572 11.2489 4.63426 11.0039C4.04279 10.7589 3.50538 10.3998 3.05269 9.9471C2.60001 9.49442 2.24092 8.957 1.99592 8.36554C1.75093 7.77408 1.62484 7.14015 1.62484 6.49996C1.62484 5.85977 1.75093 5.22584 1.99592 4.63438C2.24092 4.04292 2.60001 3.5055 3.05269 3.05281C3.50538 2.60013 4.04279 2.24104 4.63426 1.99605C5.22572 1.75105 5.85964 1.62496 6.49984 1.62496C7.79277 1.62496 9.03274 2.13857 9.94698 3.05281C10.8612 3.96705 11.3748 5.20703 11.3748 6.49996C11.3748 7.79289 10.8612 9.03286 9.94698 9.9471C9.03274 10.8613 7.79277 11.375 6.49984 11.375Z" fill="black"/>
</svg>
