<svg width="19" height="18" viewBox="0 0 19 18" fill="none" xmlns="http://www.w3.org/2000/svg">
<path d="M9.5 8.14154C8.38081 8.14154 7.42221 7.74254 6.62421 6.94454C5.82621 6.14654 5.42767 5.1884 5.42857 4.07011C5.42948 2.95182 5.82802 1.99278 6.62421 1.19297C7.4204 0.393157 8.379 -0.00448564 9.5 3.81649e-05C10.621 0.00456197 11.5796 0.402657 12.3758 1.19432C13.172 1.98599 13.5705 2.94504 13.5714 4.07147C13.5723 5.19789 13.1738 6.15604 12.3758 6.94589C11.5778 7.73575 10.6192 8.1334 9.5 8.14154ZM0 17.955V15.7212C0 15.1611 0.162857 14.6373 0.488572 14.1496C0.815191 13.661 1.254 13.2819 1.805 13.0123C3.08614 12.398 4.36819 11.9375 5.65114 11.6308C6.93319 11.3231 8.21614 11.1693 9.5 11.1693C10.7839 11.1693 12.0673 11.3231 13.3502 11.6308C14.6332 11.9384 15.9143 12.3989 17.1936 13.0123C17.7455 13.2819 18.1844 13.661 18.5101 14.1496C18.8367 14.6373 19 15.1611 19 15.7212V17.955H0ZM1.35714 16.5979H17.6429V15.7212C17.6429 15.4208 17.5456 15.1381 17.3511 14.873C17.1575 14.6088 16.8892 14.3853 16.5463 14.2025C15.4298 13.6615 14.278 13.2471 13.091 12.9594C11.904 12.6717 10.707 12.5274 9.5 12.5265C8.29305 12.5256 7.09605 12.6694 5.909 12.958C4.72195 13.2467 3.57019 13.661 2.45371 14.2012C2.1099 14.3839 1.84164 14.6074 1.64893 14.8716C1.4544 15.1367 1.35714 15.4199 1.35714 15.7212V16.5979ZM9.5 6.78575C10.2464 6.78575 10.8856 6.51975 11.4176 5.98775C11.9496 5.45575 12.2152 4.81609 12.2143 4.06875C12.2134 3.32142 11.9478 2.68266 11.4176 2.15247C10.8875 1.62228 10.2482 1.35628 9.5 1.35447C8.75176 1.35266 8.113 1.61866 7.58371 2.15247C7.05443 2.68628 6.78843 3.32504 6.78571 4.06875C6.783 4.81247 7.049 5.45168 7.58371 5.98639C8.11843 6.52111 8.75719 6.78666 9.5 6.78304" fill="black"/>
</svg>
