<svg width="49" height="44" viewBox="0 0 49 44" fill="none" xmlns="http://www.w3.org/2000/svg">
<g clip-path="url(#clip0_811_1782)">
<path d="M35.6866 11.5694C34.2745 11.5694 32.9049 11.9523 31.7054 12.6498C30.3613 11.2887 28.796 10.1488 27.0691 9.28958C29.4681 7.24792 32.522 6.125 35.6866 6.125C43.0366 6.125 49 12.0799 49 19.4384C49 22.9688 47.5964 26.3545 45.1038 28.847L39.0554 34.8955C36.5629 37.388 33.1771 38.7917 29.6467 38.7917C22.2967 38.7917 16.3333 32.8368 16.3333 25.4783C16.3333 25.3507 16.3333 25.2231 16.3418 25.0955C16.3844 23.5898 17.6349 22.4073 19.1406 22.4498C20.6464 22.4924 21.8288 23.7429 21.7863 25.2486V25.4698C21.7863 29.8168 25.3082 33.3387 29.6552 33.3387C31.7394 33.3387 33.7385 32.5135 35.2188 31.0333L41.2672 24.9849C42.7389 23.5132 43.5726 21.5056 43.5726 19.4214C43.5726 15.0743 40.0507 11.5524 35.7036 11.5524L35.6866 11.5694ZM23.4111 18.1453C23.2495 18.0773 23.0878 17.9837 22.9432 17.8816C21.8714 17.3286 20.6464 17.0139 19.3618 17.0139C17.2776 17.0139 15.2785 17.8391 13.7983 19.3193L7.74983 25.3677C6.27813 26.8394 5.44444 28.847 5.44444 30.9313C5.44444 35.2783 8.96632 38.8002 13.3134 38.8002C14.717 38.8002 16.0866 38.4259 17.2861 37.7283C18.6302 39.0894 20.1955 40.2293 21.9309 41.0885C19.5319 43.1217 16.4865 44.2531 13.3134 44.2531C5.96337 44.2531 0 38.2983 0 30.9398C0 27.4094 1.40365 24.0236 3.89618 21.5311L9.94462 15.4826C12.4372 12.9901 15.8229 11.5865 19.3533 11.5865C26.7203 11.5865 32.6667 17.5924 32.6667 24.9339V25.2656C32.6326 26.7714 31.3821 27.9538 29.8764 27.9198C28.3707 27.8858 27.1882 26.6352 27.2222 25.1295V24.9339C27.2222 22.067 25.691 19.549 23.4111 18.1623V18.1453Z" fill="black"/>
</g>
<defs>
<clipPath id="clip0_811_1782">
<rect width="49" height="43.5556" fill="white"/>
</clipPath>
</defs>
</svg>
