<svg width="24" height="24" viewBox="0 0 24 24" fill="none" xmlns="http://www.w3.org/2000/svg">
<path d="M12 4.79999C17.1072 4.79999 21.3504 7.53119 23.8784 11.576C23.9475 11.6868 23.9885 11.8128 23.9977 11.943C24.0069 12.0733 23.984 12.2038 23.9312 12.3232L23.8784 12.424C21.3504 16.4688 17.1072 19.2 12 19.2C6.8928 19.2 2.6512 16.4688 0.121602 12.424C0.0421357 12.2968 0 12.1499 0 12C0 11.8501 0.0421357 11.7031 0.121602 11.576L0.364802 11.2C2.9168 7.36159 7.0528 4.79999 12 4.79999ZM12 6.39999C7.6864 6.39999 4.0528 8.60799 1.76 12C4.0528 15.392 7.6864 17.6 12 17.6C16.3136 17.6 19.9456 15.392 22.24 12C19.944 8.60799 16.312 6.39999 12 6.39999ZM12 8.79999C12.8487 8.79999 13.6626 9.13713 14.2627 9.73725C14.8629 10.3374 15.2 11.1513 15.2 12C15.2 12.8487 14.8629 13.6626 14.2627 14.2627C13.6626 14.8628 12.8487 15.2 12 15.2C11.1513 15.2 10.3374 14.8628 9.73726 14.2627C9.13714 13.6626 8.8 12.8487 8.8 12C8.8 11.1513 9.13714 10.3374 9.73726 9.73725C10.3374 9.13713 11.1513 8.79999 12 8.79999Z" fill="black"/>
</svg>
