<svg width="1440" height="1024" viewBox="0 0 1440 1024" fill="none" xmlns="http://www.w3.org/2000/svg">
<rect width="1440" height="1024" fill="#CCEDF7"/>
<path d="M263.333 341.278C171.333 274.878 74.666 473.611 37.8327 581.278C-11.0886 695.778 423.833 635.778 459.333 593.778C494.833 551.778 378.333 424.278 263.333 341.278Z" fill="#305E37" stroke="black"/>
<path d="M139.333 364.278C47.3327 297.878 -49.334 496.611 -86.1673 604.278C-135.089 718.778 299.833 658.778 335.333 616.778C370.833 574.778 254.333 447.278 139.333 364.278Z" fill="#459451" stroke="black"/>
<path d="M886.292 302.084C789.793 210.205 645.739 426.087 585.774 545.513C510.659 670.969 1026.25 670.257 1074.23 627.027C1122.21 583.797 1006.92 416.932 886.292 302.084Z" fill="#305E37" stroke="black"/>
<path d="M1398.5 284.887C1302 193.009 1157.94 408.891 1097.98 528.316C1022.86 653.772 1538.46 653.06 1586.44 609.831C1634.42 566.601 1519.12 399.736 1398.5 284.887Z" fill="#305E37" stroke="black"/>
<path d="M1144.5 268.887C1048 177.009 903.944 392.891 843.979 512.316C768.864 637.772 1284.46 637.06 1332.44 593.831C1380.42 550.601 1265.12 383.736 1144.5 268.887Z" fill="#459451" stroke="black"/>
<path d="M624.37 247.662C509.692 138.475 338.5 395.026 267.238 536.95C177.972 686.041 790.699 685.195 847.718 633.821C904.737 582.448 767.718 384.147 624.37 247.662Z" fill="#459451" stroke="black"/>
<path d="M683.184 551.902C444.771 515.141 130.226 571.259 0 601.893V1020H1443V511C1289.07 539.951 921.597 588.663 683.184 551.902Z" fill="#9BFF87"/>
</svg>
