<svg width="68" height="68" viewBox="0 0 68 68" fill="none" xmlns="http://www.w3.org/2000/svg">
<circle cx="34" cy="34" r="34" fill="#838383"/>
<path opacity="0.45" d="M23.7778 46C23.0139 46 22.3602 45.7282 21.8167 45.1847C21.2731 44.6412 21.0009 43.987 21 43.2222V23.7778C21 23.0139 21.2722 22.3602 21.8167 21.8167C22.3611 21.2731 23.0148 21.0009 23.7778 21H43.2222C43.9861 21 44.6403 21.2722 45.1847 21.8167C45.7292 22.3611 46.0009 23.0148 46 23.7778V43.2222C46 43.9861 45.7282 44.6403 45.1847 45.1847C44.6412 45.7292 43.987 46.0009 43.2222 46H23.7778ZM25.1667 40.4444H41.8333L36.625 33.5L32.4583 39.0556L29.3333 34.8889L25.1667 40.4444Z" fill="black"/>
</svg>
