<svg width="169" height="169" viewBox="0 0 169 169" fill="none" xmlns="http://www.w3.org/2000/svg">
<path d="M67.6582 45.2825C73.9624 45.2825 79.0732 50.3933 79.0732 56.6975C79.0732 58.5955 78.6067 60.3835 77.7871 61.9583C84.0412 62.5841 88.9277 67.9734 88.9277 74.5286C88.9275 81.2495 83.7904 86.7429 77.3096 87.135V87.1594H57.0459V87.1497C52.4655 86.9718 48.8068 83.2053 48.8066 78.5813C48.8066 75.9393 50.0016 73.5767 51.8799 72.0032C48.9572 70.7163 46.9161 67.7961 46.916 64.3977C46.916 59.8095 50.6354 56.0902 55.2236 56.0901C55.5735 56.0901 55.9183 56.1135 56.2568 56.1555C56.5397 50.103 61.5358 45.2827 67.6582 45.2825Z" fill="white"/>
<rect x="65.959" y="90.9412" width="5.40347" height="12.428" fill="white"/>
<path d="M108.097 82.0483C102.927 77.5405 97.9602 78.4245 96.0889 79.4592C95.2569 79.8005 95.064 78.9137 95.0684 78.2922C95.0693 78.1734 95.1233 78.0598 95.2081 77.9766C100.016 73.261 105.686 75.4331 108.281 77.3469C108.494 77.5042 108.793 77.4801 108.983 77.296C113.695 72.7418 121.627 76.3272 121.89 78.1084C122.107 79.5673 121.395 79.6169 121.012 79.4592C116.048 77.2585 111.015 80.0953 108.794 82.0465C108.596 82.2209 108.296 82.222 108.097 82.0483Z" fill="white"/>
<path d="M98.007 60.8809C93.4927 57.4451 89.4295 58.4313 87.93 59.3849C87.2673 59.7055 87.0562 59.0104 87.0218 58.4949C87.0139 58.3764 87.061 58.2598 87.1408 58.1719C90.8662 54.0651 95.6309 55.5128 97.9142 56.9584C98.1381 57.1002 98.4345 57.0592 98.6157 56.8658C102.32 52.911 109.05 55.4752 109.36 56.9389C109.614 58.1435 109.024 58.2211 108.697 58.1094C104.493 56.5465 100.485 59.0959 98.7052 60.8348C98.5162 61.0194 98.2172 61.0409 98.007 60.8809Z" fill="white"/>
<path d="M110.738 51.501C107.997 47.4421 104.396 47.1086 102.898 47.468C102.273 47.5431 102.284 46.9345 102.396 46.5014C102.426 46.3864 102.508 46.2914 102.612 46.2345C106.795 43.9472 110.275 46.4183 111.766 48.2472C111.933 48.4526 112.227 48.5108 112.462 48.3893C116.619 46.2437 121.392 50.2301 121.234 51.5173C121.102 52.5811 120.595 52.4781 120.357 52.2936C117.365 49.8398 113.39 50.765 111.413 51.6851C111.174 51.7966 110.886 51.72 110.738 51.501Z" fill="white"/>
<rect x="44.4844" y="108.773" width="79.296" height="5.1333" fill="white"/>
<rect x="44.4844" y="117.688" width="79.296" height="5.1333" fill="white"/>
</svg>
