<svg width="33" height="33" viewBox="0 0 33 33" fill="none" xmlns="http://www.w3.org/2000/svg">
<path d="M7.09921 15.1997H27.3646C27.6334 15.1997 27.8911 15.3065 28.0811 15.4965C28.2712 15.6865 28.3779 15.9442 28.3779 16.213C28.3779 16.4817 28.2712 16.7394 28.0811 16.9295C27.8911 17.1195 27.6334 17.2263 27.3646 17.2263H7.09921C6.83047 17.2263 6.57274 17.1195 6.38272 16.9295C6.19269 16.7394 6.08594 16.4817 6.08594 16.213C6.08594 15.9442 6.19269 15.6865 6.38272 15.4965C6.57274 15.3065 6.83047 15.1997 7.09921 15.1997Z" fill="black"/>
<path d="M8.53379 16.216L16.9379 24.6181C17.1281 24.8083 17.235 25.0664 17.235 25.3355C17.235 25.6046 17.1281 25.8626 16.9379 26.0529C16.7476 26.2431 16.4895 26.35 16.2205 26.35C15.9514 26.35 15.6933 26.2431 15.5031 26.0529L6.38362 16.9334C6.28926 16.8393 6.2144 16.7275 6.16331 16.6044C6.11223 16.4813 6.08594 16.3493 6.08594 16.216C6.08594 16.0827 6.11223 15.9508 6.16331 15.8277C6.2144 15.7046 6.28926 15.5928 6.38362 15.4986L15.5031 6.37919C15.6933 6.18892 15.9514 6.08203 16.2205 6.08203C16.4895 6.08203 16.7476 6.18892 16.9379 6.37919C17.1281 6.56945 17.235 6.82751 17.235 7.09658C17.235 7.36566 17.1281 7.62371 16.9379 7.81398L8.53379 16.216Z" fill="black"/>
</svg>
