<svg width="227" height="227" viewBox="0 0 227 227" fill="none" xmlns="http://www.w3.org/2000/svg">
<path d="M56.6306 217.09H18.8761C16.3728 217.09 13.9721 216.095 12.202 214.325C10.4319 212.555 9.4375 210.155 9.4375 207.651V132.142C9.4375 129.639 10.4319 127.238 12.202 125.468C13.9721 123.698 16.3728 122.704 18.8761 122.704H56.6306C59.1339 122.704 61.5346 123.698 63.3047 125.468C65.0748 127.238 66.0692 129.639 66.0692 132.142V207.651C66.0692 210.155 65.0748 212.555 63.3047 214.325C61.5346 216.095 59.1339 217.09 56.6306 217.09Z" fill="black"/>
<path d="M132.138 217.09H94.3839C91.8807 217.09 89.4799 216.095 87.7098 214.325C85.9397 212.555 84.9453 210.154 84.9453 207.651V18.8786C84.9453 16.3753 85.9397 13.9745 87.7098 12.2044C89.4799 10.4344 91.8807 9.43994 94.3839 9.43994H132.138C134.642 9.43994 137.042 10.4344 138.813 12.2044C140.583 13.9745 141.577 16.3753 141.577 18.8786V207.651C141.577 210.154 140.583 212.555 138.813 214.325C137.042 216.095 134.642 217.09 132.138 217.09Z" fill="black"/>
<path d="M207.654 217.089H169.9C167.396 217.089 164.996 216.095 163.225 214.325C161.455 212.555 160.461 210.154 160.461 207.651V94.3874C160.461 91.8841 161.455 89.4833 163.225 87.7132C164.996 85.9432 167.396 84.9487 169.9 84.9487H207.654C210.157 84.9487 212.558 85.9432 214.328 87.7132C216.098 89.4833 217.093 91.8841 217.093 94.3874V207.651C217.093 210.154 216.098 212.555 214.328 214.325C212.558 216.095 210.157 217.089 207.654 217.089Z" fill="black"/>
</svg>
