<svg width="54" height="54" viewBox="0 0 54 54" fill="none" xmlns="http://www.w3.org/2000/svg">
<g clip-path="url(#clip0_2446_3807)">
<path d="M13.3301 27.7778C14.2492 27.7779 15.1013 28.0891 15.7266 28.7144C16.3518 29.3396 16.663 30.1918 16.6631 31.1108V48.8892C16.663 49.8082 16.3518 50.6604 15.7266 51.2856C15.1013 51.9109 14.2491 52.2221 13.3301 52.2222H4.44141C3.52224 52.2222 2.66926 51.911 2.04395 51.2856C1.41878 50.6604 1.1075 49.8081 1.10742 48.8892V31.1108C1.10747 30.1918 1.41879 29.3396 2.04395 28.7144C2.66926 28.089 3.52224 27.7778 4.44141 27.7778H13.3301ZM31.1074 1.11084C32.0266 1.11084 32.8796 1.42205 33.5049 2.04736C34.1301 2.67266 34.4414 3.52571 34.4414 4.44482V48.8892C34.4413 49.8081 34.13 50.6604 33.5049 51.2856C32.8796 51.911 32.0266 52.2222 31.1074 52.2222H22.2188C21.2997 52.2222 20.4476 51.9108 19.8223 51.2856C19.197 50.6604 18.8858 49.8082 18.8857 48.8892V4.44482C18.8857 3.52566 19.197 2.67267 19.8223 2.04736C20.4476 1.42223 21.2997 1.11084 22.2188 1.11084H31.1074ZM48.8857 18.8892C49.8048 18.8892 50.657 19.2004 51.2822 19.8257C51.9074 20.451 52.2188 21.3031 52.2188 22.2222V48.8892C52.2187 49.8082 51.9075 50.6604 51.2822 51.2856C50.657 51.9109 49.8048 52.2221 48.8857 52.2222H39.9961C39.0771 52.2221 38.2248 51.9109 37.5996 51.2856C36.9744 50.6604 36.6632 49.8082 36.6631 48.8892V22.2222C36.6631 21.3031 36.9744 20.451 37.5996 19.8257C38.2248 19.2005 39.0771 18.8893 39.9961 18.8892H48.8857Z" fill="white" stroke="black" stroke-width="2.22222"/>
</g>
<defs>
<clipPath id="clip0_2446_3807">
<rect width="53.3333" height="53.3333" fill="white"/>
</clipPath>
</defs>
</svg>
