<svg width="60" height="60" viewBox="0 0 60 60" fill="none" xmlns="http://www.w3.org/2000/svg">
<path d="M30 7.63867C31.3596 7.63867 32.5953 8.04688 33.667 8.86133L48.6562 20.1035C49.4265 20.6683 50.0308 21.3899 50.4629 22.252C50.8953 23.1147 51.113 24.0354 51.1113 25V47.5C51.1113 49.1723 50.5019 50.6318 49.3154 51.8184C48.1292 53.0045 46.6709 53.6121 45 53.6104L37.5 53.6113C36.5112 53.6113 35.6297 53.264 34.9326 52.5645C34.2379 51.8672 33.8911 50.9886 33.8887 50.0029V37.5C33.8887 37.0722 33.7565 36.7664 33.4961 36.5068C33.2663 36.2778 33.0013 36.1469 32.6523 36.1172L32.4971 36.1113H27.5C27.0722 36.1113 26.7664 36.2435 26.5068 36.5039C26.2451 36.7666 26.1123 37.0754 26.1113 37.5029V50C26.1113 50.9887 25.7637 51.8701 25.0654 52.5684C24.3677 53.266 23.4876 53.6121 22.5 53.6104L15 53.6113C13.3284 53.6113 11.8698 53.0035 10.6846 51.8184C9.49937 50.6332 8.8907 49.1735 8.88867 47.501V25C8.88867 24.0353 9.10668 23.1147 9.53906 22.252C9.97082 21.3905 10.5735 20.6694 11.3418 20.1045L26.333 8.86133C27.4047 8.04688 28.6404 7.63867 30 7.63867Z" fill="white" stroke="black" stroke-width="2.22222"/>
</svg>
