<svg width="268" height="268" viewBox="0 0 268 268" fill="none" xmlns="http://www.w3.org/2000/svg">
<path d="M33.4219 133.695H44.5632M133.693 33.4238V44.5651M222.824 133.695H233.965M62.3892 62.3911L70.1881 70.19M204.998 62.3911L197.199 70.19M108.068 189.402H159.318M100.27 178.26C90.9161 171.245 84.007 161.465 80.5209 150.305C77.0348 139.145 77.1484 127.171 80.8457 116.079C84.5429 104.988 91.6364 95.3403 101.121 88.5039C110.606 81.6676 122.002 77.9889 133.693 77.9889C145.385 77.9889 156.781 81.6676 166.265 88.5039C175.75 95.3403 182.844 104.988 186.541 116.079C190.238 127.171 190.352 139.145 186.866 150.305C183.38 161.465 176.471 171.245 167.117 178.26C162.767 182.566 159.492 187.836 157.557 193.642C155.621 199.449 155.08 205.63 155.976 211.684C155.976 217.594 153.628 223.262 149.45 227.44C145.271 231.619 139.603 233.967 133.693 233.967C127.784 233.967 122.116 231.619 117.937 227.44C113.758 223.262 111.411 217.594 111.411 211.684C112.307 205.63 111.766 199.449 109.83 193.642C107.895 187.836 104.619 182.566 100.27 178.26Z" stroke="black" stroke-width="13.0434" stroke-linecap="round" stroke-linejoin="round"/>
<path d="M162.095 125.951H138.86L144.023 94.9702L105.297 141.442H128.533L123.369 172.422L162.095 125.951Z" fill="black"/>
</svg>
