<svg width="17" height="17" viewBox="0 0 17 17" fill="none" xmlns="http://www.w3.org/2000/svg">
<g opacity="0.45">
<path d="M12.5054 4.49857C11.9811 3.97081 11.3576 3.55203 10.6707 3.26634C9.98385 2.98065 9.24724 2.83371 8.50333 2.83398C5.3725 2.83398 2.84375 5.36982 2.84375 8.50065C2.84375 11.6315 5.3725 14.1673 8.50333 14.1673C11.1454 14.1673 13.3483 12.3611 13.9787 9.91732H12.5054C12.2136 10.7457 11.672 11.4632 10.9551 11.9707C10.2383 12.4782 9.38163 12.7507 8.50333 12.7507C6.15875 12.7507 4.25333 10.8452 4.25333 8.50065C4.25333 6.15607 6.15875 4.25065 8.50333 4.25065C9.67917 4.25065 10.7275 4.7394 11.4925 5.51148L9.21167 7.79232H14.17V2.83398L12.5054 4.49857Z" fill="black"/>
</g>
</svg>
