<svg width="69" height="69" viewBox="0 0 69 69" fill="none" xmlns="http://www.w3.org/2000/svg">
<path d="M43.1768 7.77734L43.2988 8.75098L44.2598 16.4424C44.6568 16.6228 45.0409 16.8221 45.4092 17.0459C45.7556 17.2564 46.0956 17.4779 46.4307 17.708L53.6045 14.6943L54.5068 14.3154L54.9971 15.1621L62.1523 27.5215L62.6445 28.3711L61.8613 28.9639L55.6553 33.6631C55.6619 33.7868 55.667 33.9101 55.667 34.0322V35.7852C55.667 35.9211 55.6565 36.0569 55.6426 36.1924L61.7969 40.8535L62.5791 41.4463L62.0869 42.2959L54.9316 54.6553L54.4404 55.5039L53.5371 55.1211L46.4248 52.1084C46.0786 52.3424 45.7239 52.568 45.3584 52.7812C44.9952 52.9931 44.6286 53.184 44.2617 53.3584L43.2988 61.0664L43.1768 62.04H26.9043L26.7822 61.0664L25.8213 53.375C25.4245 53.1945 25.0412 52.9945 24.6738 52.7705C24.3282 52.5598 23.9878 52.3377 23.6514 52.1074L16.4766 55.123L15.5742 55.502L15.085 54.6553L7.92871 42.2959L7.4375 41.4463L8.21973 40.8535L14.4258 36.1533C14.4192 36.0307 14.415 35.909 14.415 35.7881V34.0322C14.415 33.9101 14.4191 33.7868 14.4258 33.6631L8.21973 28.9639L7.4375 28.3711L7.92871 27.5215L15.085 15.1621L15.5742 14.3154L16.4766 14.6943L23.6523 17.709C23.9996 17.4742 24.3569 17.25 24.7236 17.0361C25.0868 16.8243 25.4525 16.6324 25.8193 16.458L26.7822 8.75098L26.9043 7.77734H43.1768ZM35.1709 26.9131C32.9014 26.9131 31.0303 27.6887 29.4873 29.25C27.9373 30.8184 27.1733 32.6837 27.1748 34.9082C27.1764 37.1335 27.9415 38.9997 29.4902 40.5684C31.0314 42.1292 32.9015 42.9043 35.1709 42.9043C37.3915 42.9043 39.2556 42.1321 40.8252 40.5625C42.3946 38.993 43.167 37.1288 43.167 34.9082C43.1669 32.6877 42.3947 30.8234 40.8252 29.2539C39.2557 27.6845 37.3915 26.9131 35.1709 26.9131Z" fill="white" stroke="black" stroke-width="2.22222"/>
</svg>
