<svg width="185" height="64" viewBox="0 0 185 64" fill="none" xmlns="http://www.w3.org/2000/svg">
<path d="M0.22283 47V46.5543L2.4957 46.1087L15.197 15.4473H21.971L34.1821 46.1087L36.3213 46.5543V47H19.2525V46.7772L22.3721 46.1532L13.2807 23.3355H12.7013L12.523 23.7811C11.5129 26.3065 10.7404 28.7279 10.2056 31.0454C9.70053 33.3331 9.44799 35.3534 9.44799 37.1063C9.44799 38.8296 9.70053 40.4191 10.2056 41.8749C10.7404 43.301 11.5426 44.4449 12.6122 45.3065C13.7115 46.1384 15.1227 46.5543 16.8459 46.5543V47H0.22283ZM7.66535 34.2987V33.853L17.9155 32.9617V34.2987H7.66535ZM44.0827 47L31.7825 16.3386L29.6434 15.8929V15.4473H46.8013V15.8929L43.5925 16.294L52.7731 39.1118H53.3525L53.4416 38.889C54.2141 36.9281 54.8083 34.9969 55.2242 33.0954C55.6402 31.1642 55.8482 29.3964 55.8482 27.7921C55.8482 24.9695 55.2688 22.5333 54.1101 20.4832C52.9811 18.4332 51.347 16.9031 49.2078 15.8929V15.4473H65.4299V15.8929L63.157 16.3386L50.8568 47H44.0827ZM101.584 47V46.5543L104.704 46.1087V20.0376C104.704 19.2651 104.437 18.5223 103.902 17.8093C103.367 17.0962 102.595 16.4574 101.584 15.8929V15.4473H115.043L129.661 35.3237H130.419V35.1009C130.419 33.5559 130.285 32.011 130.017 30.466C129.75 28.9211 129.349 27.4207 128.814 25.9648C128.279 24.509 127.611 23.1423 126.809 21.8648C126.036 20.5872 125.13 19.4434 124.09 18.4332C123.05 17.3933 121.892 16.5466 120.614 15.8929V15.4473H134.831V15.8929L131.087 16.3386V47H125.249L106.041 21.4191H105.372V21.6419C105.372 23.7811 105.506 25.846 105.774 27.8366C106.041 29.8272 106.472 31.7287 107.066 33.5411C107.66 35.3237 108.418 37.0172 109.339 38.6216C110.26 40.1963 111.359 41.6521 112.637 42.9891C113.944 44.326 115.444 45.5145 117.138 46.5543V47H101.584ZM151.314 15.4473V15.8929L149.085 16.3386V46.1087L151.314 46.5543V47H135.939V46.5543L138.167 46.1087V16.3386L135.939 15.8929V15.4473H151.314ZM183.391 41.3401C182.173 42.9148 180.836 44.1626 179.38 45.0837C177.954 46.0047 176.453 46.6583 174.879 47.0446C173.304 47.4605 171.729 47.6685 170.155 47.6685C167.867 47.6685 165.713 47.312 163.693 46.5989C161.702 45.8561 159.934 44.7866 158.389 43.3902C156.874 41.964 155.686 40.2408 154.824 38.2205C153.962 36.2002 153.532 33.8976 153.532 31.3128C153.532 28.7279 153.933 26.4254 154.735 24.405C155.537 22.355 156.696 20.6169 158.211 19.1908C159.726 17.735 161.568 16.6357 163.737 15.8929C165.906 15.1502 168.372 14.7788 171.135 14.7788C172.769 14.7788 174.359 14.9422 175.904 15.269C177.478 15.5661 178.919 15.9375 180.227 16.3832C181.534 16.7991 182.604 17.2002 183.435 17.5864L180.761 30.778H179.87L177.062 24.1376C176.231 22.1767 175.369 20.5426 174.478 19.2354C173.616 17.9281 172.71 16.9477 171.759 16.294C170.838 15.6404 169.872 15.3136 168.862 15.3136C168.149 15.3136 167.51 15.6701 166.946 16.3832C166.381 17.0665 165.906 18.0024 165.52 19.1908C165.134 20.3792 164.837 21.7311 164.629 23.2463C164.421 24.7319 164.317 26.2917 164.317 27.9257C164.317 29.7678 164.539 31.5802 164.985 33.3628C165.431 35.1157 166.144 36.7201 167.124 38.1759C168.134 39.602 169.427 40.7459 171.001 41.6075C172.606 42.4394 174.537 42.8554 176.795 42.8554C177.894 42.8554 178.964 42.7217 180.004 42.4543C181.044 42.1572 182.024 41.6818 182.945 41.0282L183.391 41.3401Z" fill="white"/>
<path d="M93.5542 39.5838C89.8684 47.3091 82.5801 48.4518 74.2902 44.4952C66.0003 40.5387 61.0792 35.3312 64.765 27.6059C68.4508 19.8806 95.6276 10.3296 95.6276 10.3296C95.6276 10.3296 91.639 17.0098 93.5542 26.6843C94.5118 31.5217 95.3467 35.8269 93.5542 39.5838Z" fill="white"/>
<path d="M82.7284 27.6061C80.2537 32.7795 77.6577 42.1179 73.05 40.9661C68.4422 39.8143 77.0163 30.0094 79.7344 26.224C82.4525 22.4386 93.3194 12.6333 93.3194 12.6333C93.3194 12.6333 85.2031 22.4326 82.7284 27.6061Z" fill="#2E4C38"/>
<path d="M75.7576 54.5378C65.3775 48.446 73.5766 41.912 72.8262 41.4269C72.0688 40.9373 69.1426 44.8821 67.0668 49.0284C66.5478 50.0651 65.0747 53.8716 64.7978 54.5899C64.7759 54.6467 64.8181 54.7072 64.879 54.7072L75.722 54.7072C75.8112 54.7072 75.8345 54.583 75.7576 54.5378Z" fill="white"/>
</svg>
