<svg width="1440" height="939" viewBox="0 0 1440 939" fill="none" xmlns="http://www.w3.org/2000/svg">
<rect width="1440" height="939" fill="#563927"/>
<circle opacity="0.3" cx="940.5" cy="92.5" r="7.5" fill="#EC8701"/>
<circle opacity="0.3" cx="812.5" cy="218.5" r="12.5" fill="#F3F3F3"/>
<circle opacity="0.3" cx="895.5" cy="737.5" r="12.5" fill="#F3F3F3"/>
<circle opacity="0.3" cx="510.5" cy="27.5" r="7.5" fill="#EC8701"/>
<circle opacity="0.3" cx="382.5" cy="153.5" r="12.5" fill="#F3F3F3"/>
<circle opacity="0.3" cx="177.5" cy="719.5" r="7.5" fill="#EC8701"/>
<circle opacity="0.3" cx="49.5" cy="845.5" r="12.5" fill="#F3F3F3"/>
<circle opacity="0.3" cx="1067.5" cy="819.5" r="7.5" transform="rotate(180 1067.5 819.5)" fill="#EC8701"/>
<circle opacity="0.3" cx="1254.5" cy="724.5" r="12.5" transform="rotate(180 1254.5 724.5)" fill="#F3F3F3"/>
<circle opacity="0.3" cx="7.5" cy="7.5" r="7.5" transform="matrix(-0.855418 0.517939 0.517939 0.855418 445.832 791)" fill="#EC8701"/>
<circle opacity="0.3" cx="12.5" cy="12.5" r="12.5" transform="matrix(-0.855418 0.517939 0.517939 0.855418 619.383 839)" fill="#F3F3F3"/>
<circle opacity="0.3" cx="7.5" cy="7.5" r="7.5" transform="matrix(-0.855418 0.517939 0.517939 0.855418 36.832 166)" fill="#EC8701"/>
<circle opacity="0.3" cx="12.5" cy="12.5" r="12.5" transform="matrix(-0.855418 0.517939 0.517939 0.855418 213.273 200.62)" fill="#F3F3F3"/>
<circle opacity="0.3" cx="7.5" cy="7.5" r="7.5" transform="matrix(-0.855418 0.517939 0.517939 0.855418 1122.83 154)" fill="#EC8701"/>
<circle opacity="0.3" cx="28.6735" cy="28.6735" r="28.6735" transform="matrix(-0.855418 0.517939 0.517939 0.855418 1326.94 171.866)" fill="black"/>
<circle opacity="0.3" cx="28.6735" cy="28.6735" r="28.6735" transform="matrix(-0.855418 0.517939 0.517939 0.855418 247.055 794)" fill="black"/>
<circle opacity="0.3" cx="8.36191" cy="8.36191" r="8.36191" transform="matrix(-0.855418 0.517939 0.517939 0.855418 303.305 178)" fill="black"/>
<circle opacity="0.3" cx="8.36191" cy="8.36191" r="8.36191" transform="matrix(-0.855418 0.517939 0.517939 0.855418 1034.3 127)" fill="black"/>
<circle opacity="0.3" cx="8.36191" cy="8.36191" r="8.36191" transform="matrix(-0.855418 0.517939 0.517939 0.855418 751.305 57)" fill="black"/>
</svg>
